<mxfile host="app.diagrams.net" modified="2022-03-15T11:32:20.580Z" agent="5.0 (Macintosh; Intel Mac OS X 10_15_7) AppleWebKit/537.36 (KHTML, like Gecko) Chrome/99.0.4844.51 Safari/537.36" etag="JK6chTGq55UoEV2eaUR0" version="17.1.2" type="github">
  <diagram id="9TDbdFuDciQQ4_RM8ILd" name="Page-1">
    <mxGraphModel dx="1426" dy="830" grid="1" gridSize="10" guides="1" tooltips="1" connect="1" arrows="1" fold="1" page="1" pageScale="1" pageWidth="827" pageHeight="1169" math="0" shadow="0">
      <root>
        <mxCell id="0" />
        <mxCell id="1" parent="0" />
        <mxCell id="28t_TmLzIudg9PH67Oan-2" value="" style="shape=table;html=1;whiteSpace=wrap;startSize=0;container=1;collapsible=0;childLayout=tableLayout;" vertex="1" parent="1">
          <mxGeometry x="80" y="80" width="180" height="270" as="geometry" />
        </mxCell>
        <mxCell id="28t_TmLzIudg9PH67Oan-49" style="shape=tableRow;horizontal=0;startSize=0;swimlaneHead=0;swimlaneBody=0;top=0;left=0;bottom=0;right=0;collapsible=0;dropTarget=0;fillColor=none;points=[[0,0.5],[1,0.5]];portConstraint=eastwest;" vertex="1" parent="28t_TmLzIudg9PH67Oan-2">
          <mxGeometry width="180" height="30" as="geometry" />
        </mxCell>
        <mxCell id="28t_TmLzIudg9PH67Oan-50" value="code" style="shape=partialRectangle;html=1;whiteSpace=wrap;connectable=0;fillColor=none;top=0;left=0;bottom=0;right=0;overflow=hidden;fontFamily=Source Code Pro;fontSource=https%3A%2F%2Ffonts.googleapis.com%2Fcss%3Ffamily%3DSource%2BCode%2BPro;" vertex="1" parent="28t_TmLzIudg9PH67Oan-49">
          <mxGeometry width="60" height="30" as="geometry">
            <mxRectangle width="60" height="30" as="alternateBounds" />
          </mxGeometry>
        </mxCell>
        <mxCell id="28t_TmLzIudg9PH67Oan-51" value="offset" style="shape=partialRectangle;html=1;whiteSpace=wrap;connectable=0;fillColor=none;top=0;left=0;bottom=0;right=0;overflow=hidden;fontFamily=Source Code Pro;fontSource=https%3A%2F%2Ffonts.googleapis.com%2Fcss%3Ffamily%3DSource%2BCode%2BPro;fontStyle=1" vertex="1" parent="28t_TmLzIudg9PH67Oan-49">
          <mxGeometry x="60" width="60" height="30" as="geometry">
            <mxRectangle width="60" height="30" as="alternateBounds" />
          </mxGeometry>
        </mxCell>
        <mxCell id="28t_TmLzIudg9PH67Oan-52" value="is_code" style="shape=partialRectangle;html=1;whiteSpace=wrap;connectable=0;fillColor=none;top=0;left=0;bottom=0;right=0;overflow=hidden;fontFamily=Source Code Pro;fontSource=https%3A%2F%2Ffonts.googleapis.com%2Fcss%3Ffamily%3DSource%2BCode%2BPro;fontStyle=1" vertex="1" parent="28t_TmLzIudg9PH67Oan-49">
          <mxGeometry x="120" width="60" height="30" as="geometry">
            <mxRectangle width="60" height="30" as="alternateBounds" />
          </mxGeometry>
        </mxCell>
        <mxCell id="28t_TmLzIudg9PH67Oan-3" value="" style="shape=tableRow;horizontal=0;startSize=0;swimlaneHead=0;swimlaneBody=0;top=0;left=0;bottom=0;right=0;collapsible=0;dropTarget=0;fillColor=none;points=[[0,0.5],[1,0.5]];portConstraint=eastwest;" vertex="1" parent="28t_TmLzIudg9PH67Oan-2">
          <mxGeometry y="30" width="180" height="30" as="geometry" />
        </mxCell>
        <mxCell id="28t_TmLzIudg9PH67Oan-4" value="PUSH1" style="shape=partialRectangle;html=1;whiteSpace=wrap;connectable=0;fillColor=none;top=0;left=0;bottom=0;right=0;overflow=hidden;fontFamily=Source Code Pro;fontSource=https%3A%2F%2Ffonts.googleapis.com%2Fcss%3Ffamily%3DSource%2BCode%2BPro;" vertex="1" parent="28t_TmLzIudg9PH67Oan-3">
          <mxGeometry width="60" height="30" as="geometry">
            <mxRectangle width="60" height="30" as="alternateBounds" />
          </mxGeometry>
        </mxCell>
        <mxCell id="28t_TmLzIudg9PH67Oan-5" value="0" style="shape=partialRectangle;html=1;whiteSpace=wrap;connectable=0;fillColor=none;top=0;left=0;bottom=0;right=0;overflow=hidden;fontFamily=Source Code Pro;fontSource=https%3A%2F%2Ffonts.googleapis.com%2Fcss%3Ffamily%3DSource%2BCode%2BPro;" vertex="1" parent="28t_TmLzIudg9PH67Oan-3">
          <mxGeometry x="60" width="60" height="30" as="geometry">
            <mxRectangle width="60" height="30" as="alternateBounds" />
          </mxGeometry>
        </mxCell>
        <mxCell id="28t_TmLzIudg9PH67Oan-6" value="1" style="shape=partialRectangle;html=1;whiteSpace=wrap;connectable=0;fillColor=none;top=0;left=0;bottom=0;right=0;overflow=hidden;fontFamily=Source Code Pro;fontSource=https%3A%2F%2Ffonts.googleapis.com%2Fcss%3Ffamily%3DSource%2BCode%2BPro;" vertex="1" parent="28t_TmLzIudg9PH67Oan-3">
          <mxGeometry x="120" width="60" height="30" as="geometry">
            <mxRectangle width="60" height="30" as="alternateBounds" />
          </mxGeometry>
        </mxCell>
        <mxCell id="28t_TmLzIudg9PH67Oan-7" value="" style="shape=tableRow;horizontal=0;startSize=0;swimlaneHead=0;swimlaneBody=0;top=0;left=0;bottom=0;right=0;collapsible=0;dropTarget=0;fillColor=none;points=[[0,0.5],[1,0.5]];portConstraint=eastwest;" vertex="1" parent="28t_TmLzIudg9PH67Oan-2">
          <mxGeometry y="60" width="180" height="30" as="geometry" />
        </mxCell>
        <mxCell id="28t_TmLzIudg9PH67Oan-8" value="2" style="shape=partialRectangle;html=1;whiteSpace=wrap;connectable=0;fillColor=none;top=0;left=0;bottom=0;right=0;overflow=hidden;fontFamily=Source Code Pro;fontSource=https%3A%2F%2Ffonts.googleapis.com%2Fcss%3Ffamily%3DSource%2BCode%2BPro;" vertex="1" parent="28t_TmLzIudg9PH67Oan-7">
          <mxGeometry width="60" height="30" as="geometry">
            <mxRectangle width="60" height="30" as="alternateBounds" />
          </mxGeometry>
        </mxCell>
        <mxCell id="28t_TmLzIudg9PH67Oan-9" value="1" style="shape=partialRectangle;html=1;whiteSpace=wrap;connectable=0;fillColor=none;top=0;left=0;bottom=0;right=0;overflow=hidden;fontFamily=Source Code Pro;fontSource=https%3A%2F%2Ffonts.googleapis.com%2Fcss%3Ffamily%3DSource%2BCode%2BPro;" vertex="1" parent="28t_TmLzIudg9PH67Oan-7">
          <mxGeometry x="60" width="60" height="30" as="geometry">
            <mxRectangle width="60" height="30" as="alternateBounds" />
          </mxGeometry>
        </mxCell>
        <mxCell id="28t_TmLzIudg9PH67Oan-10" value="0" style="shape=partialRectangle;html=1;whiteSpace=wrap;connectable=0;fillColor=none;top=0;left=0;bottom=0;right=0;overflow=hidden;fontFamily=Source Code Pro;fontSource=https%3A%2F%2Ffonts.googleapis.com%2Fcss%3Ffamily%3DSource%2BCode%2BPro;" vertex="1" parent="28t_TmLzIudg9PH67Oan-7">
          <mxGeometry x="120" width="60" height="30" as="geometry">
            <mxRectangle width="60" height="30" as="alternateBounds" />
          </mxGeometry>
        </mxCell>
        <mxCell id="28t_TmLzIudg9PH67Oan-11" value="" style="shape=tableRow;horizontal=0;startSize=0;swimlaneHead=0;swimlaneBody=0;top=0;left=0;bottom=0;right=0;collapsible=0;dropTarget=0;fillColor=none;points=[[0,0.5],[1,0.5]];portConstraint=eastwest;" vertex="1" parent="28t_TmLzIudg9PH67Oan-2">
          <mxGeometry y="90" width="180" height="30" as="geometry" />
        </mxCell>
        <mxCell id="28t_TmLzIudg9PH67Oan-12" value="PUSH1" style="shape=partialRectangle;html=1;whiteSpace=wrap;connectable=0;fillColor=none;top=0;left=0;bottom=0;right=0;overflow=hidden;fontFamily=Source Code Pro;fontSource=https%3A%2F%2Ffonts.googleapis.com%2Fcss%3Ffamily%3DSource%2BCode%2BPro;" vertex="1" parent="28t_TmLzIudg9PH67Oan-11">
          <mxGeometry width="60" height="30" as="geometry">
            <mxRectangle width="60" height="30" as="alternateBounds" />
          </mxGeometry>
        </mxCell>
        <mxCell id="28t_TmLzIudg9PH67Oan-13" value="2" style="shape=partialRectangle;html=1;whiteSpace=wrap;connectable=0;fillColor=none;top=0;left=0;bottom=0;right=0;overflow=hidden;fontFamily=Source Code Pro;fontSource=https%3A%2F%2Ffonts.googleapis.com%2Fcss%3Ffamily%3DSource%2BCode%2BPro;" vertex="1" parent="28t_TmLzIudg9PH67Oan-11">
          <mxGeometry x="60" width="60" height="30" as="geometry">
            <mxRectangle width="60" height="30" as="alternateBounds" />
          </mxGeometry>
        </mxCell>
        <mxCell id="28t_TmLzIudg9PH67Oan-14" value="1" style="shape=partialRectangle;html=1;whiteSpace=wrap;connectable=0;fillColor=none;top=0;left=0;bottom=0;right=0;overflow=hidden;pointerEvents=1;fontFamily=Source Code Pro;fontSource=https%3A%2F%2Ffonts.googleapis.com%2Fcss%3Ffamily%3DSource%2BCode%2BPro;" vertex="1" parent="28t_TmLzIudg9PH67Oan-11">
          <mxGeometry x="120" width="60" height="30" as="geometry">
            <mxRectangle width="60" height="30" as="alternateBounds" />
          </mxGeometry>
        </mxCell>
        <mxCell id="28t_TmLzIudg9PH67Oan-22" style="shape=tableRow;horizontal=0;startSize=0;swimlaneHead=0;swimlaneBody=0;top=0;left=0;bottom=0;right=0;collapsible=0;dropTarget=0;fillColor=none;points=[[0,0.5],[1,0.5]];portConstraint=eastwest;" vertex="1" parent="28t_TmLzIudg9PH67Oan-2">
          <mxGeometry y="120" width="180" height="30" as="geometry" />
        </mxCell>
        <mxCell id="28t_TmLzIudg9PH67Oan-23" value="4" style="shape=partialRectangle;html=1;whiteSpace=wrap;connectable=0;fillColor=none;top=0;left=0;bottom=0;right=0;overflow=hidden;fontFamily=Source Code Pro;fontSource=https%3A%2F%2Ffonts.googleapis.com%2Fcss%3Ffamily%3DSource%2BCode%2BPro;" vertex="1" parent="28t_TmLzIudg9PH67Oan-22">
          <mxGeometry width="60" height="30" as="geometry">
            <mxRectangle width="60" height="30" as="alternateBounds" />
          </mxGeometry>
        </mxCell>
        <mxCell id="28t_TmLzIudg9PH67Oan-24" value="3" style="shape=partialRectangle;html=1;whiteSpace=wrap;connectable=0;fillColor=none;top=0;left=0;bottom=0;right=0;overflow=hidden;fontFamily=Source Code Pro;fontSource=https%3A%2F%2Ffonts.googleapis.com%2Fcss%3Ffamily%3DSource%2BCode%2BPro;" vertex="1" parent="28t_TmLzIudg9PH67Oan-22">
          <mxGeometry x="60" width="60" height="30" as="geometry">
            <mxRectangle width="60" height="30" as="alternateBounds" />
          </mxGeometry>
        </mxCell>
        <mxCell id="28t_TmLzIudg9PH67Oan-25" value="0" style="shape=partialRectangle;html=1;whiteSpace=wrap;connectable=0;fillColor=none;top=0;left=0;bottom=0;right=0;overflow=hidden;pointerEvents=1;fontFamily=Source Code Pro;fontSource=https%3A%2F%2Ffonts.googleapis.com%2Fcss%3Ffamily%3DSource%2BCode%2BPro;" vertex="1" parent="28t_TmLzIudg9PH67Oan-22">
          <mxGeometry x="120" width="60" height="30" as="geometry">
            <mxRectangle width="60" height="30" as="alternateBounds" />
          </mxGeometry>
        </mxCell>
        <mxCell id="28t_TmLzIudg9PH67Oan-18" style="shape=tableRow;horizontal=0;startSize=0;swimlaneHead=0;swimlaneBody=0;top=0;left=0;bottom=0;right=0;collapsible=0;dropTarget=0;fillColor=none;points=[[0,0.5],[1,0.5]];portConstraint=eastwest;" vertex="1" parent="28t_TmLzIudg9PH67Oan-2">
          <mxGeometry y="150" width="180" height="30" as="geometry" />
        </mxCell>
        <mxCell id="28t_TmLzIudg9PH67Oan-19" value="ADD" style="shape=partialRectangle;html=1;whiteSpace=wrap;connectable=0;fillColor=none;top=0;left=0;bottom=0;right=0;overflow=hidden;fontFamily=Source Code Pro;fontSource=https%3A%2F%2Ffonts.googleapis.com%2Fcss%3Ffamily%3DSource%2BCode%2BPro;" vertex="1" parent="28t_TmLzIudg9PH67Oan-18">
          <mxGeometry width="60" height="30" as="geometry">
            <mxRectangle width="60" height="30" as="alternateBounds" />
          </mxGeometry>
        </mxCell>
        <mxCell id="28t_TmLzIudg9PH67Oan-20" value="4" style="shape=partialRectangle;html=1;whiteSpace=wrap;connectable=0;fillColor=none;top=0;left=0;bottom=0;right=0;overflow=hidden;fontFamily=Source Code Pro;fontSource=https%3A%2F%2Ffonts.googleapis.com%2Fcss%3Ffamily%3DSource%2BCode%2BPro;" vertex="1" parent="28t_TmLzIudg9PH67Oan-18">
          <mxGeometry x="60" width="60" height="30" as="geometry">
            <mxRectangle width="60" height="30" as="alternateBounds" />
          </mxGeometry>
        </mxCell>
        <mxCell id="28t_TmLzIudg9PH67Oan-21" value="1" style="shape=partialRectangle;html=1;whiteSpace=wrap;connectable=0;fillColor=none;top=0;left=0;bottom=0;right=0;overflow=hidden;pointerEvents=1;fontFamily=Source Code Pro;fontSource=https%3A%2F%2Ffonts.googleapis.com%2Fcss%3Ffamily%3DSource%2BCode%2BPro;" vertex="1" parent="28t_TmLzIudg9PH67Oan-18">
          <mxGeometry x="120" width="60" height="30" as="geometry">
            <mxRectangle width="60" height="30" as="alternateBounds" />
          </mxGeometry>
        </mxCell>
        <mxCell id="28t_TmLzIudg9PH67Oan-26" style="shape=tableRow;horizontal=0;startSize=0;swimlaneHead=0;swimlaneBody=0;top=0;left=0;bottom=0;right=0;collapsible=0;dropTarget=0;fillColor=none;points=[[0,0.5],[1,0.5]];portConstraint=eastwest;" vertex="1" parent="28t_TmLzIudg9PH67Oan-2">
          <mxGeometry y="180" width="180" height="30" as="geometry" />
        </mxCell>
        <mxCell id="28t_TmLzIudg9PH67Oan-27" value="PUSH1" style="shape=partialRectangle;html=1;whiteSpace=wrap;connectable=0;fillColor=none;top=0;left=0;bottom=0;right=0;overflow=hidden;fontFamily=Source Code Pro;fontSource=https%3A%2F%2Ffonts.googleapis.com%2Fcss%3Ffamily%3DSource%2BCode%2BPro;" vertex="1" parent="28t_TmLzIudg9PH67Oan-26">
          <mxGeometry width="60" height="30" as="geometry">
            <mxRectangle width="60" height="30" as="alternateBounds" />
          </mxGeometry>
        </mxCell>
        <mxCell id="28t_TmLzIudg9PH67Oan-28" value="5" style="shape=partialRectangle;html=1;whiteSpace=wrap;connectable=0;fillColor=none;top=0;left=0;bottom=0;right=0;overflow=hidden;fontFamily=Source Code Pro;fontSource=https%3A%2F%2Ffonts.googleapis.com%2Fcss%3Ffamily%3DSource%2BCode%2BPro;" vertex="1" parent="28t_TmLzIudg9PH67Oan-26">
          <mxGeometry x="60" width="60" height="30" as="geometry">
            <mxRectangle width="60" height="30" as="alternateBounds" />
          </mxGeometry>
        </mxCell>
        <mxCell id="28t_TmLzIudg9PH67Oan-29" value="1" style="shape=partialRectangle;html=1;whiteSpace=wrap;connectable=0;fillColor=none;top=0;left=0;bottom=0;right=0;overflow=hidden;pointerEvents=1;fontFamily=Source Code Pro;fontSource=https%3A%2F%2Ffonts.googleapis.com%2Fcss%3Ffamily%3DSource%2BCode%2BPro;" vertex="1" parent="28t_TmLzIudg9PH67Oan-26">
          <mxGeometry x="120" width="60" height="30" as="geometry">
            <mxRectangle width="60" height="30" as="alternateBounds" />
          </mxGeometry>
        </mxCell>
        <mxCell id="28t_TmLzIudg9PH67Oan-30" style="shape=tableRow;horizontal=0;startSize=0;swimlaneHead=0;swimlaneBody=0;top=0;left=0;bottom=0;right=0;collapsible=0;dropTarget=0;fillColor=none;points=[[0,0.5],[1,0.5]];portConstraint=eastwest;" vertex="1" parent="28t_TmLzIudg9PH67Oan-2">
          <mxGeometry y="210" width="180" height="30" as="geometry" />
        </mxCell>
        <mxCell id="28t_TmLzIudg9PH67Oan-31" value="3" style="shape=partialRectangle;html=1;whiteSpace=wrap;connectable=0;fillColor=none;top=0;left=0;bottom=0;right=0;overflow=hidden;fontFamily=Source Code Pro;fontSource=https%3A%2F%2Ffonts.googleapis.com%2Fcss%3Ffamily%3DSource%2BCode%2BPro;" vertex="1" parent="28t_TmLzIudg9PH67Oan-30">
          <mxGeometry width="60" height="30" as="geometry">
            <mxRectangle width="60" height="30" as="alternateBounds" />
          </mxGeometry>
        </mxCell>
        <mxCell id="28t_TmLzIudg9PH67Oan-32" value="6" style="shape=partialRectangle;html=1;whiteSpace=wrap;connectable=0;fillColor=none;top=0;left=0;bottom=0;right=0;overflow=hidden;fontFamily=Source Code Pro;fontSource=https%3A%2F%2Ffonts.googleapis.com%2Fcss%3Ffamily%3DSource%2BCode%2BPro;" vertex="1" parent="28t_TmLzIudg9PH67Oan-30">
          <mxGeometry x="60" width="60" height="30" as="geometry">
            <mxRectangle width="60" height="30" as="alternateBounds" />
          </mxGeometry>
        </mxCell>
        <mxCell id="28t_TmLzIudg9PH67Oan-33" value="0" style="shape=partialRectangle;html=1;whiteSpace=wrap;connectable=0;fillColor=none;top=0;left=0;bottom=0;right=0;overflow=hidden;pointerEvents=1;fontFamily=Source Code Pro;fontSource=https%3A%2F%2Ffonts.googleapis.com%2Fcss%3Ffamily%3DSource%2BCode%2BPro;" vertex="1" parent="28t_TmLzIudg9PH67Oan-30">
          <mxGeometry x="120" width="60" height="30" as="geometry">
            <mxRectangle width="60" height="30" as="alternateBounds" />
          </mxGeometry>
        </mxCell>
        <mxCell id="28t_TmLzIudg9PH67Oan-34" style="shape=tableRow;horizontal=0;startSize=0;swimlaneHead=0;swimlaneBody=0;top=0;left=0;bottom=0;right=0;collapsible=0;dropTarget=0;fillColor=none;points=[[0,0.5],[1,0.5]];portConstraint=eastwest;" vertex="1" parent="28t_TmLzIudg9PH67Oan-2">
          <mxGeometry y="240" width="180" height="30" as="geometry" />
        </mxCell>
        <mxCell id="28t_TmLzIudg9PH67Oan-35" value="SSTORE" style="shape=partialRectangle;html=1;whiteSpace=wrap;connectable=0;fillColor=none;top=0;left=0;bottom=0;right=0;overflow=hidden;fontFamily=Source Code Pro;fontSource=https%3A%2F%2Ffonts.googleapis.com%2Fcss%3Ffamily%3DSource%2BCode%2BPro;" vertex="1" parent="28t_TmLzIudg9PH67Oan-34">
          <mxGeometry width="60" height="30" as="geometry">
            <mxRectangle width="60" height="30" as="alternateBounds" />
          </mxGeometry>
        </mxCell>
        <mxCell id="28t_TmLzIudg9PH67Oan-36" value="7" style="shape=partialRectangle;html=1;whiteSpace=wrap;connectable=0;fillColor=none;top=0;left=0;bottom=0;right=0;overflow=hidden;fontFamily=Source Code Pro;fontSource=https%3A%2F%2Ffonts.googleapis.com%2Fcss%3Ffamily%3DSource%2BCode%2BPro;" vertex="1" parent="28t_TmLzIudg9PH67Oan-34">
          <mxGeometry x="60" width="60" height="30" as="geometry">
            <mxRectangle width="60" height="30" as="alternateBounds" />
          </mxGeometry>
        </mxCell>
        <mxCell id="28t_TmLzIudg9PH67Oan-37" value="1" style="shape=partialRectangle;html=1;whiteSpace=wrap;connectable=0;fillColor=none;top=0;left=0;bottom=0;right=0;overflow=hidden;pointerEvents=1;fontFamily=Source Code Pro;fontSource=https%3A%2F%2Ffonts.googleapis.com%2Fcss%3Ffamily%3DSource%2BCode%2BPro;" vertex="1" parent="28t_TmLzIudg9PH67Oan-34">
          <mxGeometry x="120" width="60" height="30" as="geometry">
            <mxRectangle width="60" height="30" as="alternateBounds" />
          </mxGeometry>
        </mxCell>
        <mxCell id="28t_TmLzIudg9PH67Oan-54" value="Bytecode circuit" style="text;html=1;strokeColor=none;fillColor=none;align=left;verticalAlign=middle;whiteSpace=wrap;rounded=0;fontFamily=Source Code Pro;fontSource=https%3A%2F%2Ffonts.googleapis.com%2Fcss%3Ffamily%3DSource%2BCode%2BPro;" vertex="1" parent="1">
          <mxGeometry x="80" y="60" width="130" height="30" as="geometry" />
        </mxCell>
        <mxCell id="28t_TmLzIudg9PH67Oan-55" value="" style="shape=table;html=1;whiteSpace=wrap;startSize=0;container=1;collapsible=0;childLayout=tableLayout;fontFamily=Source Code Pro;fontSource=https%3A%2F%2Ffonts.googleapis.com%2Fcss%3Ffamily%3DSource%2BCode%2BPro;" vertex="1" parent="1">
          <mxGeometry x="870" y="90" width="350" height="200" as="geometry" />
        </mxCell>
        <mxCell id="28t_TmLzIudg9PH67Oan-56" value="" style="shape=tableRow;horizontal=0;startSize=0;swimlaneHead=0;swimlaneBody=0;top=0;left=0;bottom=0;right=0;collapsible=0;dropTarget=0;fillColor=none;points=[[0,0.5],[1,0.5]];portConstraint=eastwest;fontFamily=Source Code Pro;fontSource=https%3A%2F%2Ffonts.googleapis.com%2Fcss%3Ffamily%3DSource%2BCode%2BPro;" vertex="1" parent="28t_TmLzIudg9PH67Oan-55">
          <mxGeometry width="350" height="20" as="geometry" />
        </mxCell>
        <mxCell id="28t_TmLzIudg9PH67Oan-57" value="r/w" style="shape=partialRectangle;html=1;whiteSpace=wrap;connectable=0;fillColor=none;top=0;left=0;bottom=0;right=0;overflow=hidden;fontFamily=Source Code Pro;fontSource=https%3A%2F%2Ffonts.googleapis.com%2Fcss%3Ffamily%3DSource%2BCode%2BPro;fontStyle=1" vertex="1" parent="28t_TmLzIudg9PH67Oan-56">
          <mxGeometry width="70" height="20" as="geometry">
            <mxRectangle width="70" height="20" as="alternateBounds" />
          </mxGeometry>
        </mxCell>
        <mxCell id="28t_TmLzIudg9PH67Oan-58" value="tag" style="shape=partialRectangle;html=1;whiteSpace=wrap;connectable=0;fillColor=none;top=0;left=0;bottom=0;right=0;overflow=hidden;fontFamily=Source Code Pro;fontSource=https%3A%2F%2Ffonts.googleapis.com%2Fcss%3Ffamily%3DSource%2BCode%2BPro;fontStyle=1" vertex="1" parent="28t_TmLzIudg9PH67Oan-56">
          <mxGeometry x="70" width="70" height="20" as="geometry">
            <mxRectangle width="70" height="20" as="alternateBounds" />
          </mxGeometry>
        </mxCell>
        <mxCell id="28t_TmLzIudg9PH67Oan-59" value="addr" style="shape=partialRectangle;html=1;whiteSpace=wrap;connectable=0;fillColor=none;top=0;left=0;bottom=0;right=0;overflow=hidden;fontFamily=Source Code Pro;fontSource=https%3A%2F%2Ffonts.googleapis.com%2Fcss%3Ffamily%3DSource%2BCode%2BPro;fontStyle=1" vertex="1" parent="28t_TmLzIudg9PH67Oan-56">
          <mxGeometry x="140" width="60" height="20" as="geometry">
            <mxRectangle width="60" height="20" as="alternateBounds" />
          </mxGeometry>
        </mxCell>
        <mxCell id="28t_TmLzIudg9PH67Oan-73" value="val" style="shape=partialRectangle;html=1;whiteSpace=wrap;connectable=0;fillColor=none;top=0;left=0;bottom=0;right=0;overflow=hidden;fontFamily=Source Code Pro;fontSource=https%3A%2F%2Ffonts.googleapis.com%2Fcss%3Ffamily%3DSource%2BCode%2BPro;fontStyle=1" vertex="1" parent="28t_TmLzIudg9PH67Oan-56">
          <mxGeometry x="200" width="60" height="20" as="geometry">
            <mxRectangle width="60" height="20" as="alternateBounds" />
          </mxGeometry>
        </mxCell>
        <mxCell id="28t_TmLzIudg9PH67Oan-76" value="*rw_counter" style="shape=partialRectangle;html=1;whiteSpace=wrap;connectable=0;fillColor=none;top=0;left=0;bottom=0;right=0;overflow=hidden;fontFamily=Source Code Pro;fontSource=https%3A%2F%2Ffonts.googleapis.com%2Fcss%3Ffamily%3DSource%2BCode%2BPro;fontStyle=1" vertex="1" parent="28t_TmLzIudg9PH67Oan-56">
          <mxGeometry x="260" width="90" height="20" as="geometry">
            <mxRectangle width="90" height="20" as="alternateBounds" />
          </mxGeometry>
        </mxCell>
        <mxCell id="28t_TmLzIudg9PH67Oan-60" value="" style="shape=tableRow;horizontal=0;startSize=0;swimlaneHead=0;swimlaneBody=0;top=0;left=0;bottom=0;right=0;collapsible=0;dropTarget=0;fillColor=none;points=[[0,0.5],[1,0.5]];portConstraint=eastwest;fontFamily=Source Code Pro;fontSource=https%3A%2F%2Ffonts.googleapis.com%2Fcss%3Ffamily%3DSource%2BCode%2BPro;" vertex="1" parent="28t_TmLzIudg9PH67Oan-55">
          <mxGeometry y="20" width="350" height="20" as="geometry" />
        </mxCell>
        <mxCell id="28t_TmLzIudg9PH67Oan-61" value="w" style="shape=partialRectangle;html=1;whiteSpace=wrap;connectable=0;fillColor=none;top=0;left=0;bottom=0;right=0;overflow=hidden;fontFamily=Source Code Pro;fontSource=https%3A%2F%2Ffonts.googleapis.com%2Fcss%3Ffamily%3DSource%2BCode%2BPro;" vertex="1" parent="28t_TmLzIudg9PH67Oan-60">
          <mxGeometry width="70" height="20" as="geometry">
            <mxRectangle width="70" height="20" as="alternateBounds" />
          </mxGeometry>
        </mxCell>
        <mxCell id="28t_TmLzIudg9PH67Oan-62" value="stack" style="shape=partialRectangle;html=1;whiteSpace=wrap;connectable=0;fillColor=none;top=0;left=0;bottom=0;right=0;overflow=hidden;fontFamily=Source Code Pro;fontSource=https%3A%2F%2Ffonts.googleapis.com%2Fcss%3Ffamily%3DSource%2BCode%2BPro;" vertex="1" parent="28t_TmLzIudg9PH67Oan-60">
          <mxGeometry x="70" width="70" height="20" as="geometry">
            <mxRectangle width="70" height="20" as="alternateBounds" />
          </mxGeometry>
        </mxCell>
        <mxCell id="28t_TmLzIudg9PH67Oan-63" value="1023" style="shape=partialRectangle;html=1;whiteSpace=wrap;connectable=0;fillColor=none;top=0;left=0;bottom=0;right=0;overflow=hidden;fontFamily=Source Code Pro;fontSource=https%3A%2F%2Ffonts.googleapis.com%2Fcss%3Ffamily%3DSource%2BCode%2BPro;" vertex="1" parent="28t_TmLzIudg9PH67Oan-60">
          <mxGeometry x="140" width="60" height="20" as="geometry">
            <mxRectangle width="60" height="20" as="alternateBounds" />
          </mxGeometry>
        </mxCell>
        <mxCell id="28t_TmLzIudg9PH67Oan-74" value="2" style="shape=partialRectangle;html=1;whiteSpace=wrap;connectable=0;fillColor=none;top=0;left=0;bottom=0;right=0;overflow=hidden;fontFamily=Source Code Pro;fontSource=https%3A%2F%2Ffonts.googleapis.com%2Fcss%3Ffamily%3DSource%2BCode%2BPro;" vertex="1" parent="28t_TmLzIudg9PH67Oan-60">
          <mxGeometry x="200" width="60" height="20" as="geometry">
            <mxRectangle width="60" height="20" as="alternateBounds" />
          </mxGeometry>
        </mxCell>
        <mxCell id="28t_TmLzIudg9PH67Oan-77" value="1" style="shape=partialRectangle;html=1;whiteSpace=wrap;connectable=0;fillColor=none;top=0;left=0;bottom=0;right=0;overflow=hidden;fontFamily=Source Code Pro;fontSource=https%3A%2F%2Ffonts.googleapis.com%2Fcss%3Ffamily%3DSource%2BCode%2BPro;" vertex="1" parent="28t_TmLzIudg9PH67Oan-60">
          <mxGeometry x="260" width="90" height="20" as="geometry">
            <mxRectangle width="90" height="20" as="alternateBounds" />
          </mxGeometry>
        </mxCell>
        <mxCell id="28t_TmLzIudg9PH67Oan-91" style="shape=tableRow;horizontal=0;startSize=0;swimlaneHead=0;swimlaneBody=0;top=0;left=0;bottom=0;right=0;collapsible=0;dropTarget=0;fillColor=none;points=[[0,0.5],[1,0.5]];portConstraint=eastwest;fontFamily=Source Code Pro;fontSource=https%3A%2F%2Ffonts.googleapis.com%2Fcss%3Ffamily%3DSource%2BCode%2BPro;" vertex="1" parent="28t_TmLzIudg9PH67Oan-55">
          <mxGeometry y="40" width="350" height="20" as="geometry" />
        </mxCell>
        <mxCell id="28t_TmLzIudg9PH67Oan-92" value="w" style="shape=partialRectangle;html=1;whiteSpace=wrap;connectable=0;fillColor=none;top=0;left=0;bottom=0;right=0;overflow=hidden;fontFamily=Source Code Pro;fontSource=https%3A%2F%2Ffonts.googleapis.com%2Fcss%3Ffamily%3DSource%2BCode%2BPro;" vertex="1" parent="28t_TmLzIudg9PH67Oan-91">
          <mxGeometry width="70" height="20" as="geometry">
            <mxRectangle width="70" height="20" as="alternateBounds" />
          </mxGeometry>
        </mxCell>
        <mxCell id="28t_TmLzIudg9PH67Oan-93" value="stack" style="shape=partialRectangle;html=1;whiteSpace=wrap;connectable=0;fillColor=none;top=0;left=0;bottom=0;right=0;overflow=hidden;fontFamily=Source Code Pro;fontSource=https%3A%2F%2Ffonts.googleapis.com%2Fcss%3Ffamily%3DSource%2BCode%2BPro;" vertex="1" parent="28t_TmLzIudg9PH67Oan-91">
          <mxGeometry x="70" width="70" height="20" as="geometry">
            <mxRectangle width="70" height="20" as="alternateBounds" />
          </mxGeometry>
        </mxCell>
        <mxCell id="28t_TmLzIudg9PH67Oan-94" value="1022" style="shape=partialRectangle;html=1;whiteSpace=wrap;connectable=0;fillColor=none;top=0;left=0;bottom=0;right=0;overflow=hidden;fontFamily=Source Code Pro;fontSource=https%3A%2F%2Ffonts.googleapis.com%2Fcss%3Ffamily%3DSource%2BCode%2BPro;" vertex="1" parent="28t_TmLzIudg9PH67Oan-91">
          <mxGeometry x="140" width="60" height="20" as="geometry">
            <mxRectangle width="60" height="20" as="alternateBounds" />
          </mxGeometry>
        </mxCell>
        <mxCell id="28t_TmLzIudg9PH67Oan-95" value="4" style="shape=partialRectangle;html=1;whiteSpace=wrap;connectable=0;fillColor=none;top=0;left=0;bottom=0;right=0;overflow=hidden;fontFamily=Source Code Pro;fontSource=https%3A%2F%2Ffonts.googleapis.com%2Fcss%3Ffamily%3DSource%2BCode%2BPro;" vertex="1" parent="28t_TmLzIudg9PH67Oan-91">
          <mxGeometry x="200" width="60" height="20" as="geometry">
            <mxRectangle width="60" height="20" as="alternateBounds" />
          </mxGeometry>
        </mxCell>
        <mxCell id="28t_TmLzIudg9PH67Oan-96" value="2" style="shape=partialRectangle;html=1;whiteSpace=wrap;connectable=0;fillColor=none;top=0;left=0;bottom=0;right=0;overflow=hidden;fontFamily=Source Code Pro;fontSource=https%3A%2F%2Ffonts.googleapis.com%2Fcss%3Ffamily%3DSource%2BCode%2BPro;" vertex="1" parent="28t_TmLzIudg9PH67Oan-91">
          <mxGeometry x="260" width="90" height="20" as="geometry">
            <mxRectangle width="90" height="20" as="alternateBounds" />
          </mxGeometry>
        </mxCell>
        <mxCell id="28t_TmLzIudg9PH67Oan-145" style="shape=tableRow;horizontal=0;startSize=0;swimlaneHead=0;swimlaneBody=0;top=0;left=0;bottom=0;right=0;collapsible=0;dropTarget=0;fillColor=none;points=[[0,0.5],[1,0.5]];portConstraint=eastwest;fontFamily=Source Code Pro;fontSource=https%3A%2F%2Ffonts.googleapis.com%2Fcss%3Ffamily%3DSource%2BCode%2BPro;" vertex="1" parent="28t_TmLzIudg9PH67Oan-55">
          <mxGeometry y="60" width="350" height="20" as="geometry" />
        </mxCell>
        <mxCell id="28t_TmLzIudg9PH67Oan-146" value="r" style="shape=partialRectangle;html=1;whiteSpace=wrap;connectable=0;fillColor=none;top=0;left=0;bottom=0;right=0;overflow=hidden;fontFamily=Source Code Pro;fontSource=https%3A%2F%2Ffonts.googleapis.com%2Fcss%3Ffamily%3DSource%2BCode%2BPro;" vertex="1" parent="28t_TmLzIudg9PH67Oan-145">
          <mxGeometry width="70" height="20" as="geometry">
            <mxRectangle width="70" height="20" as="alternateBounds" />
          </mxGeometry>
        </mxCell>
        <mxCell id="28t_TmLzIudg9PH67Oan-147" value="stack" style="shape=partialRectangle;html=1;whiteSpace=wrap;connectable=0;fillColor=none;top=0;left=0;bottom=0;right=0;overflow=hidden;fontFamily=Source Code Pro;fontSource=https%3A%2F%2Ffonts.googleapis.com%2Fcss%3Ffamily%3DSource%2BCode%2BPro;" vertex="1" parent="28t_TmLzIudg9PH67Oan-145">
          <mxGeometry x="70" width="70" height="20" as="geometry">
            <mxRectangle width="70" height="20" as="alternateBounds" />
          </mxGeometry>
        </mxCell>
        <mxCell id="28t_TmLzIudg9PH67Oan-148" value="1022" style="shape=partialRectangle;html=1;whiteSpace=wrap;connectable=0;fillColor=none;top=0;left=0;bottom=0;right=0;overflow=hidden;fontFamily=Source Code Pro;fontSource=https%3A%2F%2Ffonts.googleapis.com%2Fcss%3Ffamily%3DSource%2BCode%2BPro;" vertex="1" parent="28t_TmLzIudg9PH67Oan-145">
          <mxGeometry x="140" width="60" height="20" as="geometry">
            <mxRectangle width="60" height="20" as="alternateBounds" />
          </mxGeometry>
        </mxCell>
        <mxCell id="28t_TmLzIudg9PH67Oan-149" value="4" style="shape=partialRectangle;html=1;whiteSpace=wrap;connectable=0;fillColor=none;top=0;left=0;bottom=0;right=0;overflow=hidden;fontFamily=Source Code Pro;fontSource=https%3A%2F%2Ffonts.googleapis.com%2Fcss%3Ffamily%3DSource%2BCode%2BPro;" vertex="1" parent="28t_TmLzIudg9PH67Oan-145">
          <mxGeometry x="200" width="60" height="20" as="geometry">
            <mxRectangle width="60" height="20" as="alternateBounds" />
          </mxGeometry>
        </mxCell>
        <mxCell id="28t_TmLzIudg9PH67Oan-150" value="3" style="shape=partialRectangle;html=1;whiteSpace=wrap;connectable=0;fillColor=none;top=0;left=0;bottom=0;right=0;overflow=hidden;fontFamily=Source Code Pro;fontSource=https%3A%2F%2Ffonts.googleapis.com%2Fcss%3Ffamily%3DSource%2BCode%2BPro;" vertex="1" parent="28t_TmLzIudg9PH67Oan-145">
          <mxGeometry x="260" width="90" height="20" as="geometry">
            <mxRectangle width="90" height="20" as="alternateBounds" />
          </mxGeometry>
        </mxCell>
        <mxCell id="28t_TmLzIudg9PH67Oan-139" style="shape=tableRow;horizontal=0;startSize=0;swimlaneHead=0;swimlaneBody=0;top=0;left=0;bottom=0;right=0;collapsible=0;dropTarget=0;fillColor=none;points=[[0,0.5],[1,0.5]];portConstraint=eastwest;fontFamily=Source Code Pro;fontSource=https%3A%2F%2Ffonts.googleapis.com%2Fcss%3Ffamily%3DSource%2BCode%2BPro;" vertex="1" parent="28t_TmLzIudg9PH67Oan-55">
          <mxGeometry y="80" width="350" height="20" as="geometry" />
        </mxCell>
        <mxCell id="28t_TmLzIudg9PH67Oan-140" value="r" style="shape=partialRectangle;html=1;whiteSpace=wrap;connectable=0;fillColor=none;top=0;left=0;bottom=0;right=0;overflow=hidden;fontFamily=Source Code Pro;fontSource=https%3A%2F%2Ffonts.googleapis.com%2Fcss%3Ffamily%3DSource%2BCode%2BPro;" vertex="1" parent="28t_TmLzIudg9PH67Oan-139">
          <mxGeometry width="70" height="20" as="geometry">
            <mxRectangle width="70" height="20" as="alternateBounds" />
          </mxGeometry>
        </mxCell>
        <mxCell id="28t_TmLzIudg9PH67Oan-141" value="stack" style="shape=partialRectangle;html=1;whiteSpace=wrap;connectable=0;fillColor=none;top=0;left=0;bottom=0;right=0;overflow=hidden;fontFamily=Source Code Pro;fontSource=https%3A%2F%2Ffonts.googleapis.com%2Fcss%3Ffamily%3DSource%2BCode%2BPro;" vertex="1" parent="28t_TmLzIudg9PH67Oan-139">
          <mxGeometry x="70" width="70" height="20" as="geometry">
            <mxRectangle width="70" height="20" as="alternateBounds" />
          </mxGeometry>
        </mxCell>
        <mxCell id="28t_TmLzIudg9PH67Oan-142" value="1023" style="shape=partialRectangle;html=1;whiteSpace=wrap;connectable=0;fillColor=none;top=0;left=0;bottom=0;right=0;overflow=hidden;fontFamily=Source Code Pro;fontSource=https%3A%2F%2Ffonts.googleapis.com%2Fcss%3Ffamily%3DSource%2BCode%2BPro;" vertex="1" parent="28t_TmLzIudg9PH67Oan-139">
          <mxGeometry x="140" width="60" height="20" as="geometry">
            <mxRectangle width="60" height="20" as="alternateBounds" />
          </mxGeometry>
        </mxCell>
        <mxCell id="28t_TmLzIudg9PH67Oan-143" value="2" style="shape=partialRectangle;html=1;whiteSpace=wrap;connectable=0;fillColor=none;top=0;left=0;bottom=0;right=0;overflow=hidden;fontFamily=Source Code Pro;fontSource=https%3A%2F%2Ffonts.googleapis.com%2Fcss%3Ffamily%3DSource%2BCode%2BPro;" vertex="1" parent="28t_TmLzIudg9PH67Oan-139">
          <mxGeometry x="200" width="60" height="20" as="geometry">
            <mxRectangle width="60" height="20" as="alternateBounds" />
          </mxGeometry>
        </mxCell>
        <mxCell id="28t_TmLzIudg9PH67Oan-144" value="4" style="shape=partialRectangle;html=1;whiteSpace=wrap;connectable=0;fillColor=none;top=0;left=0;bottom=0;right=0;overflow=hidden;fontFamily=Source Code Pro;fontSource=https%3A%2F%2Ffonts.googleapis.com%2Fcss%3Ffamily%3DSource%2BCode%2BPro;" vertex="1" parent="28t_TmLzIudg9PH67Oan-139">
          <mxGeometry x="260" width="90" height="20" as="geometry">
            <mxRectangle width="90" height="20" as="alternateBounds" />
          </mxGeometry>
        </mxCell>
        <mxCell id="28t_TmLzIudg9PH67Oan-133" style="shape=tableRow;horizontal=0;startSize=0;swimlaneHead=0;swimlaneBody=0;top=0;left=0;bottom=0;right=0;collapsible=0;dropTarget=0;fillColor=none;points=[[0,0.5],[1,0.5]];portConstraint=eastwest;fontFamily=Source Code Pro;fontSource=https%3A%2F%2Ffonts.googleapis.com%2Fcss%3Ffamily%3DSource%2BCode%2BPro;" vertex="1" parent="28t_TmLzIudg9PH67Oan-55">
          <mxGeometry y="100" width="350" height="20" as="geometry" />
        </mxCell>
        <mxCell id="28t_TmLzIudg9PH67Oan-134" value="w" style="shape=partialRectangle;html=1;whiteSpace=wrap;connectable=0;fillColor=none;top=0;left=0;bottom=0;right=0;overflow=hidden;fontFamily=Source Code Pro;fontSource=https%3A%2F%2Ffonts.googleapis.com%2Fcss%3Ffamily%3DSource%2BCode%2BPro;" vertex="1" parent="28t_TmLzIudg9PH67Oan-133">
          <mxGeometry width="70" height="20" as="geometry">
            <mxRectangle width="70" height="20" as="alternateBounds" />
          </mxGeometry>
        </mxCell>
        <mxCell id="28t_TmLzIudg9PH67Oan-135" value="stack" style="shape=partialRectangle;html=1;whiteSpace=wrap;connectable=0;fillColor=none;top=0;left=0;bottom=0;right=0;overflow=hidden;fontFamily=Source Code Pro;fontSource=https%3A%2F%2Ffonts.googleapis.com%2Fcss%3Ffamily%3DSource%2BCode%2BPro;" vertex="1" parent="28t_TmLzIudg9PH67Oan-133">
          <mxGeometry x="70" width="70" height="20" as="geometry">
            <mxRectangle width="70" height="20" as="alternateBounds" />
          </mxGeometry>
        </mxCell>
        <mxCell id="28t_TmLzIudg9PH67Oan-136" value="1023" style="shape=partialRectangle;html=1;whiteSpace=wrap;connectable=0;fillColor=none;top=0;left=0;bottom=0;right=0;overflow=hidden;fontFamily=Source Code Pro;fontSource=https%3A%2F%2Ffonts.googleapis.com%2Fcss%3Ffamily%3DSource%2BCode%2BPro;" vertex="1" parent="28t_TmLzIudg9PH67Oan-133">
          <mxGeometry x="140" width="60" height="20" as="geometry">
            <mxRectangle width="60" height="20" as="alternateBounds" />
          </mxGeometry>
        </mxCell>
        <mxCell id="28t_TmLzIudg9PH67Oan-137" value="6" style="shape=partialRectangle;html=1;whiteSpace=wrap;connectable=0;fillColor=none;top=0;left=0;bottom=0;right=0;overflow=hidden;fontFamily=Source Code Pro;fontSource=https%3A%2F%2Ffonts.googleapis.com%2Fcss%3Ffamily%3DSource%2BCode%2BPro;" vertex="1" parent="28t_TmLzIudg9PH67Oan-133">
          <mxGeometry x="200" width="60" height="20" as="geometry">
            <mxRectangle width="60" height="20" as="alternateBounds" />
          </mxGeometry>
        </mxCell>
        <mxCell id="28t_TmLzIudg9PH67Oan-138" value="5" style="shape=partialRectangle;html=1;whiteSpace=wrap;connectable=0;fillColor=none;top=0;left=0;bottom=0;right=0;overflow=hidden;fontFamily=Source Code Pro;fontSource=https%3A%2F%2Ffonts.googleapis.com%2Fcss%3Ffamily%3DSource%2BCode%2BPro;" vertex="1" parent="28t_TmLzIudg9PH67Oan-133">
          <mxGeometry x="260" width="90" height="20" as="geometry">
            <mxRectangle width="90" height="20" as="alternateBounds" />
          </mxGeometry>
        </mxCell>
        <mxCell id="28t_TmLzIudg9PH67Oan-127" style="shape=tableRow;horizontal=0;startSize=0;swimlaneHead=0;swimlaneBody=0;top=0;left=0;bottom=0;right=0;collapsible=0;dropTarget=0;fillColor=none;points=[[0,0.5],[1,0.5]];portConstraint=eastwest;fontFamily=Source Code Pro;fontSource=https%3A%2F%2Ffonts.googleapis.com%2Fcss%3Ffamily%3DSource%2BCode%2BPro;" vertex="1" parent="28t_TmLzIudg9PH67Oan-55">
          <mxGeometry y="120" width="350" height="20" as="geometry" />
        </mxCell>
        <mxCell id="28t_TmLzIudg9PH67Oan-128" value="w" style="shape=partialRectangle;html=1;whiteSpace=wrap;connectable=0;fillColor=none;top=0;left=0;bottom=0;right=0;overflow=hidden;fontFamily=Source Code Pro;fontSource=https%3A%2F%2Ffonts.googleapis.com%2Fcss%3Ffamily%3DSource%2BCode%2BPro;" vertex="1" parent="28t_TmLzIudg9PH67Oan-127">
          <mxGeometry width="70" height="20" as="geometry">
            <mxRectangle width="70" height="20" as="alternateBounds" />
          </mxGeometry>
        </mxCell>
        <mxCell id="28t_TmLzIudg9PH67Oan-129" value="stack" style="shape=partialRectangle;html=1;whiteSpace=wrap;connectable=0;fillColor=none;top=0;left=0;bottom=0;right=0;overflow=hidden;fontFamily=Source Code Pro;fontSource=https%3A%2F%2Ffonts.googleapis.com%2Fcss%3Ffamily%3DSource%2BCode%2BPro;" vertex="1" parent="28t_TmLzIudg9PH67Oan-127">
          <mxGeometry x="70" width="70" height="20" as="geometry">
            <mxRectangle width="70" height="20" as="alternateBounds" />
          </mxGeometry>
        </mxCell>
        <mxCell id="28t_TmLzIudg9PH67Oan-130" value="1022" style="shape=partialRectangle;html=1;whiteSpace=wrap;connectable=0;fillColor=none;top=0;left=0;bottom=0;right=0;overflow=hidden;fontFamily=Source Code Pro;fontSource=https%3A%2F%2Ffonts.googleapis.com%2Fcss%3Ffamily%3DSource%2BCode%2BPro;" vertex="1" parent="28t_TmLzIudg9PH67Oan-127">
          <mxGeometry x="140" width="60" height="20" as="geometry">
            <mxRectangle width="60" height="20" as="alternateBounds" />
          </mxGeometry>
        </mxCell>
        <mxCell id="28t_TmLzIudg9PH67Oan-131" value="3" style="shape=partialRectangle;html=1;whiteSpace=wrap;connectable=0;fillColor=none;top=0;left=0;bottom=0;right=0;overflow=hidden;fontFamily=Source Code Pro;fontSource=https%3A%2F%2Ffonts.googleapis.com%2Fcss%3Ffamily%3DSource%2BCode%2BPro;" vertex="1" parent="28t_TmLzIudg9PH67Oan-127">
          <mxGeometry x="200" width="60" height="20" as="geometry">
            <mxRectangle width="60" height="20" as="alternateBounds" />
          </mxGeometry>
        </mxCell>
        <mxCell id="28t_TmLzIudg9PH67Oan-132" value="6" style="shape=partialRectangle;html=1;whiteSpace=wrap;connectable=0;fillColor=none;top=0;left=0;bottom=0;right=0;overflow=hidden;fontFamily=Source Code Pro;fontSource=https%3A%2F%2Ffonts.googleapis.com%2Fcss%3Ffamily%3DSource%2BCode%2BPro;" vertex="1" parent="28t_TmLzIudg9PH67Oan-127">
          <mxGeometry x="260" width="90" height="20" as="geometry">
            <mxRectangle width="90" height="20" as="alternateBounds" />
          </mxGeometry>
        </mxCell>
        <mxCell id="28t_TmLzIudg9PH67Oan-121" style="shape=tableRow;horizontal=0;startSize=0;swimlaneHead=0;swimlaneBody=0;top=0;left=0;bottom=0;right=0;collapsible=0;dropTarget=0;fillColor=none;points=[[0,0.5],[1,0.5]];portConstraint=eastwest;fontFamily=Source Code Pro;fontSource=https%3A%2F%2Ffonts.googleapis.com%2Fcss%3Ffamily%3DSource%2BCode%2BPro;" vertex="1" parent="28t_TmLzIudg9PH67Oan-55">
          <mxGeometry y="140" width="350" height="20" as="geometry" />
        </mxCell>
        <mxCell id="28t_TmLzIudg9PH67Oan-122" value="r" style="shape=partialRectangle;html=1;whiteSpace=wrap;connectable=0;fillColor=none;top=0;left=0;bottom=0;right=0;overflow=hidden;fontFamily=Source Code Pro;fontSource=https%3A%2F%2Ffonts.googleapis.com%2Fcss%3Ffamily%3DSource%2BCode%2BPro;" vertex="1" parent="28t_TmLzIudg9PH67Oan-121">
          <mxGeometry width="70" height="20" as="geometry">
            <mxRectangle width="70" height="20" as="alternateBounds" />
          </mxGeometry>
        </mxCell>
        <mxCell id="28t_TmLzIudg9PH67Oan-123" value="stack" style="shape=partialRectangle;html=1;whiteSpace=wrap;connectable=0;fillColor=none;top=0;left=0;bottom=0;right=0;overflow=hidden;fontFamily=Source Code Pro;fontSource=https%3A%2F%2Ffonts.googleapis.com%2Fcss%3Ffamily%3DSource%2BCode%2BPro;" vertex="1" parent="28t_TmLzIudg9PH67Oan-121">
          <mxGeometry x="70" width="70" height="20" as="geometry">
            <mxRectangle width="70" height="20" as="alternateBounds" />
          </mxGeometry>
        </mxCell>
        <mxCell id="28t_TmLzIudg9PH67Oan-124" value="1022" style="shape=partialRectangle;html=1;whiteSpace=wrap;connectable=0;fillColor=none;top=0;left=0;bottom=0;right=0;overflow=hidden;fontFamily=Source Code Pro;fontSource=https%3A%2F%2Ffonts.googleapis.com%2Fcss%3Ffamily%3DSource%2BCode%2BPro;" vertex="1" parent="28t_TmLzIudg9PH67Oan-121">
          <mxGeometry x="140" width="60" height="20" as="geometry">
            <mxRectangle width="60" height="20" as="alternateBounds" />
          </mxGeometry>
        </mxCell>
        <mxCell id="28t_TmLzIudg9PH67Oan-125" value="3" style="shape=partialRectangle;html=1;whiteSpace=wrap;connectable=0;fillColor=none;top=0;left=0;bottom=0;right=0;overflow=hidden;fontFamily=Source Code Pro;fontSource=https%3A%2F%2Ffonts.googleapis.com%2Fcss%3Ffamily%3DSource%2BCode%2BPro;" vertex="1" parent="28t_TmLzIudg9PH67Oan-121">
          <mxGeometry x="200" width="60" height="20" as="geometry">
            <mxRectangle width="60" height="20" as="alternateBounds" />
          </mxGeometry>
        </mxCell>
        <mxCell id="28t_TmLzIudg9PH67Oan-126" value="7" style="shape=partialRectangle;html=1;whiteSpace=wrap;connectable=0;fillColor=none;top=0;left=0;bottom=0;right=0;overflow=hidden;fontFamily=Source Code Pro;fontSource=https%3A%2F%2Ffonts.googleapis.com%2Fcss%3Ffamily%3DSource%2BCode%2BPro;" vertex="1" parent="28t_TmLzIudg9PH67Oan-121">
          <mxGeometry x="260" width="90" height="20" as="geometry">
            <mxRectangle width="90" height="20" as="alternateBounds" />
          </mxGeometry>
        </mxCell>
        <mxCell id="28t_TmLzIudg9PH67Oan-115" style="shape=tableRow;horizontal=0;startSize=0;swimlaneHead=0;swimlaneBody=0;top=0;left=0;bottom=0;right=0;collapsible=0;dropTarget=0;fillColor=none;points=[[0,0.5],[1,0.5]];portConstraint=eastwest;fontFamily=Source Code Pro;fontSource=https%3A%2F%2Ffonts.googleapis.com%2Fcss%3Ffamily%3DSource%2BCode%2BPro;" vertex="1" parent="28t_TmLzIudg9PH67Oan-55">
          <mxGeometry y="160" width="350" height="20" as="geometry" />
        </mxCell>
        <mxCell id="28t_TmLzIudg9PH67Oan-116" value="r" style="shape=partialRectangle;html=1;whiteSpace=wrap;connectable=0;fillColor=none;top=0;left=0;bottom=0;right=0;overflow=hidden;fontFamily=Source Code Pro;fontSource=https%3A%2F%2Ffonts.googleapis.com%2Fcss%3Ffamily%3DSource%2BCode%2BPro;" vertex="1" parent="28t_TmLzIudg9PH67Oan-115">
          <mxGeometry width="70" height="20" as="geometry">
            <mxRectangle width="70" height="20" as="alternateBounds" />
          </mxGeometry>
        </mxCell>
        <mxCell id="28t_TmLzIudg9PH67Oan-117" value="stack" style="shape=partialRectangle;html=1;whiteSpace=wrap;connectable=0;fillColor=none;top=0;left=0;bottom=0;right=0;overflow=hidden;fontFamily=Source Code Pro;fontSource=https%3A%2F%2Ffonts.googleapis.com%2Fcss%3Ffamily%3DSource%2BCode%2BPro;" vertex="1" parent="28t_TmLzIudg9PH67Oan-115">
          <mxGeometry x="70" width="70" height="20" as="geometry">
            <mxRectangle width="70" height="20" as="alternateBounds" />
          </mxGeometry>
        </mxCell>
        <mxCell id="28t_TmLzIudg9PH67Oan-118" value="1023" style="shape=partialRectangle;html=1;whiteSpace=wrap;connectable=0;fillColor=none;top=0;left=0;bottom=0;right=0;overflow=hidden;fontFamily=Source Code Pro;fontSource=https%3A%2F%2Ffonts.googleapis.com%2Fcss%3Ffamily%3DSource%2BCode%2BPro;" vertex="1" parent="28t_TmLzIudg9PH67Oan-115">
          <mxGeometry x="140" width="60" height="20" as="geometry">
            <mxRectangle width="60" height="20" as="alternateBounds" />
          </mxGeometry>
        </mxCell>
        <mxCell id="28t_TmLzIudg9PH67Oan-119" value="6" style="shape=partialRectangle;html=1;whiteSpace=wrap;connectable=0;fillColor=none;top=0;left=0;bottom=0;right=0;overflow=hidden;fontFamily=Source Code Pro;fontSource=https%3A%2F%2Ffonts.googleapis.com%2Fcss%3Ffamily%3DSource%2BCode%2BPro;" vertex="1" parent="28t_TmLzIudg9PH67Oan-115">
          <mxGeometry x="200" width="60" height="20" as="geometry">
            <mxRectangle width="60" height="20" as="alternateBounds" />
          </mxGeometry>
        </mxCell>
        <mxCell id="28t_TmLzIudg9PH67Oan-120" value="8" style="shape=partialRectangle;html=1;whiteSpace=wrap;connectable=0;fillColor=none;top=0;left=0;bottom=0;right=0;overflow=hidden;fontFamily=Source Code Pro;fontSource=https%3A%2F%2Ffonts.googleapis.com%2Fcss%3Ffamily%3DSource%2BCode%2BPro;" vertex="1" parent="28t_TmLzIudg9PH67Oan-115">
          <mxGeometry x="260" width="90" height="20" as="geometry">
            <mxRectangle width="90" height="20" as="alternateBounds" />
          </mxGeometry>
        </mxCell>
        <mxCell id="28t_TmLzIudg9PH67Oan-109" style="shape=tableRow;horizontal=0;startSize=0;swimlaneHead=0;swimlaneBody=0;top=0;left=0;bottom=0;right=0;collapsible=0;dropTarget=0;fillColor=none;points=[[0,0.5],[1,0.5]];portConstraint=eastwest;fontFamily=Source Code Pro;fontSource=https%3A%2F%2Ffonts.googleapis.com%2Fcss%3Ffamily%3DSource%2BCode%2BPro;" vertex="1" parent="28t_TmLzIudg9PH67Oan-55">
          <mxGeometry y="180" width="350" height="20" as="geometry" />
        </mxCell>
        <mxCell id="28t_TmLzIudg9PH67Oan-110" value="w" style="shape=partialRectangle;html=1;whiteSpace=wrap;connectable=0;fillColor=none;top=0;left=0;bottom=0;right=0;overflow=hidden;fontFamily=Source Code Pro;fontSource=https%3A%2F%2Ffonts.googleapis.com%2Fcss%3Ffamily%3DSource%2BCode%2BPro;" vertex="1" parent="28t_TmLzIudg9PH67Oan-109">
          <mxGeometry width="70" height="20" as="geometry">
            <mxRectangle width="70" height="20" as="alternateBounds" />
          </mxGeometry>
        </mxCell>
        <mxCell id="28t_TmLzIudg9PH67Oan-111" value="storage" style="shape=partialRectangle;html=1;whiteSpace=wrap;connectable=0;fillColor=none;top=0;left=0;bottom=0;right=0;overflow=hidden;fontFamily=Source Code Pro;fontSource=https%3A%2F%2Ffonts.googleapis.com%2Fcss%3Ffamily%3DSource%2BCode%2BPro;" vertex="1" parent="28t_TmLzIudg9PH67Oan-109">
          <mxGeometry x="70" width="70" height="20" as="geometry">
            <mxRectangle width="70" height="20" as="alternateBounds" />
          </mxGeometry>
        </mxCell>
        <mxCell id="28t_TmLzIudg9PH67Oan-112" value="3" style="shape=partialRectangle;html=1;whiteSpace=wrap;connectable=0;fillColor=none;top=0;left=0;bottom=0;right=0;overflow=hidden;fontFamily=Source Code Pro;fontSource=https%3A%2F%2Ffonts.googleapis.com%2Fcss%3Ffamily%3DSource%2BCode%2BPro;" vertex="1" parent="28t_TmLzIudg9PH67Oan-109">
          <mxGeometry x="140" width="60" height="20" as="geometry">
            <mxRectangle width="60" height="20" as="alternateBounds" />
          </mxGeometry>
        </mxCell>
        <mxCell id="28t_TmLzIudg9PH67Oan-113" value="6" style="shape=partialRectangle;html=1;whiteSpace=wrap;connectable=0;fillColor=none;top=0;left=0;bottom=0;right=0;overflow=hidden;fontFamily=Source Code Pro;fontSource=https%3A%2F%2Ffonts.googleapis.com%2Fcss%3Ffamily%3DSource%2BCode%2BPro;" vertex="1" parent="28t_TmLzIudg9PH67Oan-109">
          <mxGeometry x="200" width="60" height="20" as="geometry">
            <mxRectangle width="60" height="20" as="alternateBounds" />
          </mxGeometry>
        </mxCell>
        <mxCell id="28t_TmLzIudg9PH67Oan-114" value="9" style="shape=partialRectangle;html=1;whiteSpace=wrap;connectable=0;fillColor=none;top=0;left=0;bottom=0;right=0;overflow=hidden;fontFamily=Source Code Pro;fontSource=https%3A%2F%2Ffonts.googleapis.com%2Fcss%3Ffamily%3DSource%2BCode%2BPro;" vertex="1" parent="28t_TmLzIudg9PH67Oan-109">
          <mxGeometry x="260" width="90" height="20" as="geometry">
            <mxRectangle width="90" height="20" as="alternateBounds" />
          </mxGeometry>
        </mxCell>
        <mxCell id="28t_TmLzIudg9PH67Oan-68" value="generated rw_table" style="text;html=1;strokeColor=none;fillColor=none;align=left;verticalAlign=middle;whiteSpace=wrap;rounded=0;fontFamily=Source Code Pro;fontSource=https%3A%2F%2Ffonts.googleapis.com%2Fcss%3Ffamily%3DSource%2BCode%2BPro;" vertex="1" parent="1">
          <mxGeometry x="870" y="70" width="180" height="30" as="geometry" />
        </mxCell>
        <mxCell id="28t_TmLzIudg9PH67Oan-163" value="" style="shape=table;html=1;whiteSpace=wrap;startSize=0;container=1;collapsible=0;childLayout=tableLayout;fontFamily=Source Code Pro;fontSource=https%3A%2F%2Ffonts.googleapis.com%2Fcss%3Ffamily%3DSource%2BCode%2BPro;" vertex="1" parent="1">
          <mxGeometry x="870" y="350" width="350" height="200" as="geometry" />
        </mxCell>
        <mxCell id="28t_TmLzIudg9PH67Oan-164" value="" style="shape=tableRow;horizontal=0;startSize=0;swimlaneHead=0;swimlaneBody=0;top=0;left=0;bottom=0;right=0;collapsible=0;dropTarget=0;fillColor=none;points=[[0,0.5],[1,0.5]];portConstraint=eastwest;fontFamily=Source Code Pro;fontSource=https%3A%2F%2Ffonts.googleapis.com%2Fcss%3Ffamily%3DSource%2BCode%2BPro;" vertex="1" parent="28t_TmLzIudg9PH67Oan-163">
          <mxGeometry width="350" height="20" as="geometry" />
        </mxCell>
        <mxCell id="28t_TmLzIudg9PH67Oan-165" value="r/w" style="shape=partialRectangle;html=1;whiteSpace=wrap;connectable=0;fillColor=none;top=0;left=0;bottom=0;right=0;overflow=hidden;fontFamily=Source Code Pro;fontSource=https%3A%2F%2Ffonts.googleapis.com%2Fcss%3Ffamily%3DSource%2BCode%2BPro;fontStyle=1" vertex="1" parent="28t_TmLzIudg9PH67Oan-164">
          <mxGeometry width="70" height="20" as="geometry">
            <mxRectangle width="70" height="20" as="alternateBounds" />
          </mxGeometry>
        </mxCell>
        <mxCell id="28t_TmLzIudg9PH67Oan-166" value="*tag" style="shape=partialRectangle;html=1;whiteSpace=wrap;connectable=0;fillColor=none;top=0;left=0;bottom=0;right=0;overflow=hidden;fontFamily=Source Code Pro;fontSource=https%3A%2F%2Ffonts.googleapis.com%2Fcss%3Ffamily%3DSource%2BCode%2BPro;fontStyle=1" vertex="1" parent="28t_TmLzIudg9PH67Oan-164">
          <mxGeometry x="70" width="70" height="20" as="geometry">
            <mxRectangle width="70" height="20" as="alternateBounds" />
          </mxGeometry>
        </mxCell>
        <mxCell id="28t_TmLzIudg9PH67Oan-167" value="*addr" style="shape=partialRectangle;html=1;whiteSpace=wrap;connectable=0;fillColor=none;top=0;left=0;bottom=0;right=0;overflow=hidden;fontFamily=Source Code Pro;fontSource=https%3A%2F%2Ffonts.googleapis.com%2Fcss%3Ffamily%3DSource%2BCode%2BPro;fontStyle=1" vertex="1" parent="28t_TmLzIudg9PH67Oan-164">
          <mxGeometry x="140" width="60" height="20" as="geometry">
            <mxRectangle width="60" height="20" as="alternateBounds" />
          </mxGeometry>
        </mxCell>
        <mxCell id="28t_TmLzIudg9PH67Oan-168" value="val" style="shape=partialRectangle;html=1;whiteSpace=wrap;connectable=0;fillColor=none;top=0;left=0;bottom=0;right=0;overflow=hidden;fontFamily=Source Code Pro;fontSource=https%3A%2F%2Ffonts.googleapis.com%2Fcss%3Ffamily%3DSource%2BCode%2BPro;fontStyle=1" vertex="1" parent="28t_TmLzIudg9PH67Oan-164">
          <mxGeometry x="200" width="60" height="20" as="geometry">
            <mxRectangle width="60" height="20" as="alternateBounds" />
          </mxGeometry>
        </mxCell>
        <mxCell id="28t_TmLzIudg9PH67Oan-169" value="*rw_counter" style="shape=partialRectangle;html=1;whiteSpace=wrap;connectable=0;fillColor=none;top=0;left=0;bottom=0;right=0;overflow=hidden;fontFamily=Source Code Pro;fontSource=https%3A%2F%2Ffonts.googleapis.com%2Fcss%3Ffamily%3DSource%2BCode%2BPro;fontStyle=1" vertex="1" parent="28t_TmLzIudg9PH67Oan-164">
          <mxGeometry x="260" width="90" height="20" as="geometry">
            <mxRectangle width="90" height="20" as="alternateBounds" />
          </mxGeometry>
        </mxCell>
        <mxCell id="28t_TmLzIudg9PH67Oan-170" value="" style="shape=tableRow;horizontal=0;startSize=0;swimlaneHead=0;swimlaneBody=0;top=0;left=0;bottom=0;right=0;collapsible=0;dropTarget=0;fillColor=none;points=[[0,0.5],[1,0.5]];portConstraint=eastwest;fontFamily=Source Code Pro;fontSource=https%3A%2F%2Ffonts.googleapis.com%2Fcss%3Ffamily%3DSource%2BCode%2BPro;" vertex="1" parent="28t_TmLzIudg9PH67Oan-163">
          <mxGeometry y="20" width="350" height="20" as="geometry" />
        </mxCell>
        <mxCell id="28t_TmLzIudg9PH67Oan-171" value="w" style="shape=partialRectangle;html=1;whiteSpace=wrap;connectable=0;fillColor=none;top=0;left=0;bottom=0;right=0;overflow=hidden;fontFamily=Source Code Pro;fontSource=https%3A%2F%2Ffonts.googleapis.com%2Fcss%3Ffamily%3DSource%2BCode%2BPro;" vertex="1" parent="28t_TmLzIudg9PH67Oan-170">
          <mxGeometry width="70" height="20" as="geometry">
            <mxRectangle width="70" height="20" as="alternateBounds" />
          </mxGeometry>
        </mxCell>
        <mxCell id="28t_TmLzIudg9PH67Oan-172" value="storage" style="shape=partialRectangle;html=1;whiteSpace=wrap;connectable=0;fillColor=none;top=0;left=0;bottom=0;right=0;overflow=hidden;fontFamily=Source Code Pro;fontSource=https%3A%2F%2Ffonts.googleapis.com%2Fcss%3Ffamily%3DSource%2BCode%2BPro;" vertex="1" parent="28t_TmLzIudg9PH67Oan-170">
          <mxGeometry x="70" width="70" height="20" as="geometry">
            <mxRectangle width="70" height="20" as="alternateBounds" />
          </mxGeometry>
        </mxCell>
        <mxCell id="28t_TmLzIudg9PH67Oan-173" value="3" style="shape=partialRectangle;html=1;whiteSpace=wrap;connectable=0;fillColor=none;top=0;left=0;bottom=0;right=0;overflow=hidden;fontFamily=Source Code Pro;fontSource=https%3A%2F%2Ffonts.googleapis.com%2Fcss%3Ffamily%3DSource%2BCode%2BPro;" vertex="1" parent="28t_TmLzIudg9PH67Oan-170">
          <mxGeometry x="140" width="60" height="20" as="geometry">
            <mxRectangle width="60" height="20" as="alternateBounds" />
          </mxGeometry>
        </mxCell>
        <mxCell id="28t_TmLzIudg9PH67Oan-174" value="6" style="shape=partialRectangle;html=1;whiteSpace=wrap;connectable=0;fillColor=none;top=0;left=0;bottom=0;right=0;overflow=hidden;fontFamily=Source Code Pro;fontSource=https%3A%2F%2Ffonts.googleapis.com%2Fcss%3Ffamily%3DSource%2BCode%2BPro;" vertex="1" parent="28t_TmLzIudg9PH67Oan-170">
          <mxGeometry x="200" width="60" height="20" as="geometry">
            <mxRectangle width="60" height="20" as="alternateBounds" />
          </mxGeometry>
        </mxCell>
        <mxCell id="28t_TmLzIudg9PH67Oan-175" value="9" style="shape=partialRectangle;html=1;whiteSpace=wrap;connectable=0;fillColor=none;top=0;left=0;bottom=0;right=0;overflow=hidden;fontFamily=Source Code Pro;fontSource=https%3A%2F%2Ffonts.googleapis.com%2Fcss%3Ffamily%3DSource%2BCode%2BPro;" vertex="1" parent="28t_TmLzIudg9PH67Oan-170">
          <mxGeometry x="260" width="90" height="20" as="geometry">
            <mxRectangle width="90" height="20" as="alternateBounds" />
          </mxGeometry>
        </mxCell>
        <mxCell id="28t_TmLzIudg9PH67Oan-176" style="shape=tableRow;horizontal=0;startSize=0;swimlaneHead=0;swimlaneBody=0;top=0;left=0;bottom=0;right=0;collapsible=0;dropTarget=0;fillColor=none;points=[[0,0.5],[1,0.5]];portConstraint=eastwest;fontFamily=Source Code Pro;fontSource=https%3A%2F%2Ffonts.googleapis.com%2Fcss%3Ffamily%3DSource%2BCode%2BPro;" vertex="1" parent="28t_TmLzIudg9PH67Oan-163">
          <mxGeometry y="40" width="350" height="20" as="geometry" />
        </mxCell>
        <mxCell id="28t_TmLzIudg9PH67Oan-177" value="w" style="shape=partialRectangle;html=1;whiteSpace=wrap;connectable=0;fillColor=none;top=0;left=0;bottom=0;right=0;overflow=hidden;fontFamily=Source Code Pro;fontSource=https%3A%2F%2Ffonts.googleapis.com%2Fcss%3Ffamily%3DSource%2BCode%2BPro;" vertex="1" parent="28t_TmLzIudg9PH67Oan-176">
          <mxGeometry width="70" height="20" as="geometry">
            <mxRectangle width="70" height="20" as="alternateBounds" />
          </mxGeometry>
        </mxCell>
        <mxCell id="28t_TmLzIudg9PH67Oan-178" value="stack" style="shape=partialRectangle;html=1;whiteSpace=wrap;connectable=0;fillColor=none;top=0;left=0;bottom=0;right=0;overflow=hidden;fontFamily=Source Code Pro;fontSource=https%3A%2F%2Ffonts.googleapis.com%2Fcss%3Ffamily%3DSource%2BCode%2BPro;" vertex="1" parent="28t_TmLzIudg9PH67Oan-176">
          <mxGeometry x="70" width="70" height="20" as="geometry">
            <mxRectangle width="70" height="20" as="alternateBounds" />
          </mxGeometry>
        </mxCell>
        <mxCell id="28t_TmLzIudg9PH67Oan-179" value="1022" style="shape=partialRectangle;html=1;whiteSpace=wrap;connectable=0;fillColor=none;top=0;left=0;bottom=0;right=0;overflow=hidden;fontFamily=Source Code Pro;fontSource=https%3A%2F%2Ffonts.googleapis.com%2Fcss%3Ffamily%3DSource%2BCode%2BPro;" vertex="1" parent="28t_TmLzIudg9PH67Oan-176">
          <mxGeometry x="140" width="60" height="20" as="geometry">
            <mxRectangle width="60" height="20" as="alternateBounds" />
          </mxGeometry>
        </mxCell>
        <mxCell id="28t_TmLzIudg9PH67Oan-180" value="4" style="shape=partialRectangle;html=1;whiteSpace=wrap;connectable=0;fillColor=none;top=0;left=0;bottom=0;right=0;overflow=hidden;fontFamily=Source Code Pro;fontSource=https%3A%2F%2Ffonts.googleapis.com%2Fcss%3Ffamily%3DSource%2BCode%2BPro;fontColor=#FF33FF;" vertex="1" parent="28t_TmLzIudg9PH67Oan-176">
          <mxGeometry x="200" width="60" height="20" as="geometry">
            <mxRectangle width="60" height="20" as="alternateBounds" />
          </mxGeometry>
        </mxCell>
        <mxCell id="28t_TmLzIudg9PH67Oan-181" value="2" style="shape=partialRectangle;html=1;whiteSpace=wrap;connectable=0;fillColor=none;top=0;left=0;bottom=0;right=0;overflow=hidden;fontFamily=Source Code Pro;fontSource=https%3A%2F%2Ffonts.googleapis.com%2Fcss%3Ffamily%3DSource%2BCode%2BPro;" vertex="1" parent="28t_TmLzIudg9PH67Oan-176">
          <mxGeometry x="260" width="90" height="20" as="geometry">
            <mxRectangle width="90" height="20" as="alternateBounds" />
          </mxGeometry>
        </mxCell>
        <mxCell id="28t_TmLzIudg9PH67Oan-182" style="shape=tableRow;horizontal=0;startSize=0;swimlaneHead=0;swimlaneBody=0;top=0;left=0;bottom=0;right=0;collapsible=0;dropTarget=0;fillColor=none;points=[[0,0.5],[1,0.5]];portConstraint=eastwest;fontFamily=Source Code Pro;fontSource=https%3A%2F%2Ffonts.googleapis.com%2Fcss%3Ffamily%3DSource%2BCode%2BPro;" vertex="1" parent="28t_TmLzIudg9PH67Oan-163">
          <mxGeometry y="60" width="350" height="20" as="geometry" />
        </mxCell>
        <mxCell id="28t_TmLzIudg9PH67Oan-183" value="r" style="shape=partialRectangle;html=1;whiteSpace=wrap;connectable=0;fillColor=none;top=0;left=0;bottom=0;right=0;overflow=hidden;fontFamily=Source Code Pro;fontSource=https%3A%2F%2Ffonts.googleapis.com%2Fcss%3Ffamily%3DSource%2BCode%2BPro;" vertex="1" parent="28t_TmLzIudg9PH67Oan-182">
          <mxGeometry width="70" height="20" as="geometry">
            <mxRectangle width="70" height="20" as="alternateBounds" />
          </mxGeometry>
        </mxCell>
        <mxCell id="28t_TmLzIudg9PH67Oan-184" value="stack" style="shape=partialRectangle;html=1;whiteSpace=wrap;connectable=0;fillColor=none;top=0;left=0;bottom=0;right=0;overflow=hidden;fontFamily=Source Code Pro;fontSource=https%3A%2F%2Ffonts.googleapis.com%2Fcss%3Ffamily%3DSource%2BCode%2BPro;" vertex="1" parent="28t_TmLzIudg9PH67Oan-182">
          <mxGeometry x="70" width="70" height="20" as="geometry">
            <mxRectangle width="70" height="20" as="alternateBounds" />
          </mxGeometry>
        </mxCell>
        <mxCell id="28t_TmLzIudg9PH67Oan-185" value="1022" style="shape=partialRectangle;html=1;whiteSpace=wrap;connectable=0;fillColor=none;top=0;left=0;bottom=0;right=0;overflow=hidden;fontFamily=Source Code Pro;fontSource=https%3A%2F%2Ffonts.googleapis.com%2Fcss%3Ffamily%3DSource%2BCode%2BPro;" vertex="1" parent="28t_TmLzIudg9PH67Oan-182">
          <mxGeometry x="140" width="60" height="20" as="geometry">
            <mxRectangle width="60" height="20" as="alternateBounds" />
          </mxGeometry>
        </mxCell>
        <mxCell id="28t_TmLzIudg9PH67Oan-186" value="4" style="shape=partialRectangle;html=1;whiteSpace=wrap;connectable=0;fillColor=none;top=0;left=0;bottom=0;right=0;overflow=hidden;fontFamily=Source Code Pro;fontSource=https%3A%2F%2Ffonts.googleapis.com%2Fcss%3Ffamily%3DSource%2BCode%2BPro;fontColor=#FF33FF;" vertex="1" parent="28t_TmLzIudg9PH67Oan-182">
          <mxGeometry x="200" width="60" height="20" as="geometry">
            <mxRectangle width="60" height="20" as="alternateBounds" />
          </mxGeometry>
        </mxCell>
        <mxCell id="28t_TmLzIudg9PH67Oan-187" value="3" style="shape=partialRectangle;html=1;whiteSpace=wrap;connectable=0;fillColor=none;top=0;left=0;bottom=0;right=0;overflow=hidden;fontFamily=Source Code Pro;fontSource=https%3A%2F%2Ffonts.googleapis.com%2Fcss%3Ffamily%3DSource%2BCode%2BPro;" vertex="1" parent="28t_TmLzIudg9PH67Oan-182">
          <mxGeometry x="260" width="90" height="20" as="geometry">
            <mxRectangle width="90" height="20" as="alternateBounds" />
          </mxGeometry>
        </mxCell>
        <mxCell id="28t_TmLzIudg9PH67Oan-188" style="shape=tableRow;horizontal=0;startSize=0;swimlaneHead=0;swimlaneBody=0;top=0;left=0;bottom=0;right=0;collapsible=0;dropTarget=0;fillColor=none;points=[[0,0.5],[1,0.5]];portConstraint=eastwest;fontFamily=Source Code Pro;fontSource=https%3A%2F%2Ffonts.googleapis.com%2Fcss%3Ffamily%3DSource%2BCode%2BPro;" vertex="1" parent="28t_TmLzIudg9PH67Oan-163">
          <mxGeometry y="80" width="350" height="20" as="geometry" />
        </mxCell>
        <mxCell id="28t_TmLzIudg9PH67Oan-189" value="w" style="shape=partialRectangle;html=1;whiteSpace=wrap;connectable=0;fillColor=none;top=0;left=0;bottom=0;right=0;overflow=hidden;fontFamily=Source Code Pro;fontSource=https%3A%2F%2Ffonts.googleapis.com%2Fcss%3Ffamily%3DSource%2BCode%2BPro;" vertex="1" parent="28t_TmLzIudg9PH67Oan-188">
          <mxGeometry width="70" height="20" as="geometry">
            <mxRectangle width="70" height="20" as="alternateBounds" />
          </mxGeometry>
        </mxCell>
        <mxCell id="28t_TmLzIudg9PH67Oan-190" value="stack" style="shape=partialRectangle;html=1;whiteSpace=wrap;connectable=0;fillColor=none;top=0;left=0;bottom=0;right=0;overflow=hidden;fontFamily=Source Code Pro;fontSource=https%3A%2F%2Ffonts.googleapis.com%2Fcss%3Ffamily%3DSource%2BCode%2BPro;" vertex="1" parent="28t_TmLzIudg9PH67Oan-188">
          <mxGeometry x="70" width="70" height="20" as="geometry">
            <mxRectangle width="70" height="20" as="alternateBounds" />
          </mxGeometry>
        </mxCell>
        <mxCell id="28t_TmLzIudg9PH67Oan-191" value="1022" style="shape=partialRectangle;html=1;whiteSpace=wrap;connectable=0;fillColor=none;top=0;left=0;bottom=0;right=0;overflow=hidden;fontFamily=Source Code Pro;fontSource=https%3A%2F%2Ffonts.googleapis.com%2Fcss%3Ffamily%3DSource%2BCode%2BPro;" vertex="1" parent="28t_TmLzIudg9PH67Oan-188">
          <mxGeometry x="140" width="60" height="20" as="geometry">
            <mxRectangle width="60" height="20" as="alternateBounds" />
          </mxGeometry>
        </mxCell>
        <mxCell id="28t_TmLzIudg9PH67Oan-192" value="3" style="shape=partialRectangle;html=1;whiteSpace=wrap;connectable=0;fillColor=none;top=0;left=0;bottom=0;right=0;overflow=hidden;fontFamily=Source Code Pro;fontSource=https%3A%2F%2Ffonts.googleapis.com%2Fcss%3Ffamily%3DSource%2BCode%2BPro;fontColor=#3333FF;" vertex="1" parent="28t_TmLzIudg9PH67Oan-188">
          <mxGeometry x="200" width="60" height="20" as="geometry">
            <mxRectangle width="60" height="20" as="alternateBounds" />
          </mxGeometry>
        </mxCell>
        <mxCell id="28t_TmLzIudg9PH67Oan-193" value="6" style="shape=partialRectangle;html=1;whiteSpace=wrap;connectable=0;fillColor=none;top=0;left=0;bottom=0;right=0;overflow=hidden;fontFamily=Source Code Pro;fontSource=https%3A%2F%2Ffonts.googleapis.com%2Fcss%3Ffamily%3DSource%2BCode%2BPro;" vertex="1" parent="28t_TmLzIudg9PH67Oan-188">
          <mxGeometry x="260" width="90" height="20" as="geometry">
            <mxRectangle width="90" height="20" as="alternateBounds" />
          </mxGeometry>
        </mxCell>
        <mxCell id="28t_TmLzIudg9PH67Oan-194" style="shape=tableRow;horizontal=0;startSize=0;swimlaneHead=0;swimlaneBody=0;top=0;left=0;bottom=0;right=0;collapsible=0;dropTarget=0;fillColor=none;points=[[0,0.5],[1,0.5]];portConstraint=eastwest;fontFamily=Source Code Pro;fontSource=https%3A%2F%2Ffonts.googleapis.com%2Fcss%3Ffamily%3DSource%2BCode%2BPro;" vertex="1" parent="28t_TmLzIudg9PH67Oan-163">
          <mxGeometry y="100" width="350" height="20" as="geometry" />
        </mxCell>
        <mxCell id="28t_TmLzIudg9PH67Oan-195" value="r" style="shape=partialRectangle;html=1;whiteSpace=wrap;connectable=0;fillColor=none;top=0;left=0;bottom=0;right=0;overflow=hidden;fontFamily=Source Code Pro;fontSource=https%3A%2F%2Ffonts.googleapis.com%2Fcss%3Ffamily%3DSource%2BCode%2BPro;" vertex="1" parent="28t_TmLzIudg9PH67Oan-194">
          <mxGeometry width="70" height="20" as="geometry">
            <mxRectangle width="70" height="20" as="alternateBounds" />
          </mxGeometry>
        </mxCell>
        <mxCell id="28t_TmLzIudg9PH67Oan-196" value="stack" style="shape=partialRectangle;html=1;whiteSpace=wrap;connectable=0;fillColor=none;top=0;left=0;bottom=0;right=0;overflow=hidden;fontFamily=Source Code Pro;fontSource=https%3A%2F%2Ffonts.googleapis.com%2Fcss%3Ffamily%3DSource%2BCode%2BPro;" vertex="1" parent="28t_TmLzIudg9PH67Oan-194">
          <mxGeometry x="70" width="70" height="20" as="geometry">
            <mxRectangle width="70" height="20" as="alternateBounds" />
          </mxGeometry>
        </mxCell>
        <mxCell id="28t_TmLzIudg9PH67Oan-197" value="1022" style="shape=partialRectangle;html=1;whiteSpace=wrap;connectable=0;fillColor=none;top=0;left=0;bottom=0;right=0;overflow=hidden;fontFamily=Source Code Pro;fontSource=https%3A%2F%2Ffonts.googleapis.com%2Fcss%3Ffamily%3DSource%2BCode%2BPro;" vertex="1" parent="28t_TmLzIudg9PH67Oan-194">
          <mxGeometry x="140" width="60" height="20" as="geometry">
            <mxRectangle width="60" height="20" as="alternateBounds" />
          </mxGeometry>
        </mxCell>
        <mxCell id="28t_TmLzIudg9PH67Oan-198" value="3" style="shape=partialRectangle;html=1;whiteSpace=wrap;connectable=0;fillColor=none;top=0;left=0;bottom=0;right=0;overflow=hidden;fontFamily=Source Code Pro;fontSource=https%3A%2F%2Ffonts.googleapis.com%2Fcss%3Ffamily%3DSource%2BCode%2BPro;fontColor=#3333FF;" vertex="1" parent="28t_TmLzIudg9PH67Oan-194">
          <mxGeometry x="200" width="60" height="20" as="geometry">
            <mxRectangle width="60" height="20" as="alternateBounds" />
          </mxGeometry>
        </mxCell>
        <mxCell id="28t_TmLzIudg9PH67Oan-199" value="7" style="shape=partialRectangle;html=1;whiteSpace=wrap;connectable=0;fillColor=none;top=0;left=0;bottom=0;right=0;overflow=hidden;fontFamily=Source Code Pro;fontSource=https%3A%2F%2Ffonts.googleapis.com%2Fcss%3Ffamily%3DSource%2BCode%2BPro;" vertex="1" parent="28t_TmLzIudg9PH67Oan-194">
          <mxGeometry x="260" width="90" height="20" as="geometry">
            <mxRectangle width="90" height="20" as="alternateBounds" />
          </mxGeometry>
        </mxCell>
        <mxCell id="28t_TmLzIudg9PH67Oan-200" style="shape=tableRow;horizontal=0;startSize=0;swimlaneHead=0;swimlaneBody=0;top=0;left=0;bottom=0;right=0;collapsible=0;dropTarget=0;fillColor=none;points=[[0,0.5],[1,0.5]];portConstraint=eastwest;fontFamily=Source Code Pro;fontSource=https%3A%2F%2Ffonts.googleapis.com%2Fcss%3Ffamily%3DSource%2BCode%2BPro;" vertex="1" parent="28t_TmLzIudg9PH67Oan-163">
          <mxGeometry y="120" width="350" height="20" as="geometry" />
        </mxCell>
        <mxCell id="28t_TmLzIudg9PH67Oan-201" value="w" style="shape=partialRectangle;html=1;whiteSpace=wrap;connectable=0;fillColor=none;top=0;left=0;bottom=0;right=0;overflow=hidden;fontFamily=Source Code Pro;fontSource=https%3A%2F%2Ffonts.googleapis.com%2Fcss%3Ffamily%3DSource%2BCode%2BPro;" vertex="1" parent="28t_TmLzIudg9PH67Oan-200">
          <mxGeometry width="70" height="20" as="geometry">
            <mxRectangle width="70" height="20" as="alternateBounds" />
          </mxGeometry>
        </mxCell>
        <mxCell id="28t_TmLzIudg9PH67Oan-202" value="stack" style="shape=partialRectangle;html=1;whiteSpace=wrap;connectable=0;fillColor=none;top=0;left=0;bottom=0;right=0;overflow=hidden;fontFamily=Source Code Pro;fontSource=https%3A%2F%2Ffonts.googleapis.com%2Fcss%3Ffamily%3DSource%2BCode%2BPro;" vertex="1" parent="28t_TmLzIudg9PH67Oan-200">
          <mxGeometry x="70" width="70" height="20" as="geometry">
            <mxRectangle width="70" height="20" as="alternateBounds" />
          </mxGeometry>
        </mxCell>
        <mxCell id="28t_TmLzIudg9PH67Oan-203" value="1023" style="shape=partialRectangle;html=1;whiteSpace=wrap;connectable=0;fillColor=none;top=0;left=0;bottom=0;right=0;overflow=hidden;fontFamily=Source Code Pro;fontSource=https%3A%2F%2Ffonts.googleapis.com%2Fcss%3Ffamily%3DSource%2BCode%2BPro;" vertex="1" parent="28t_TmLzIudg9PH67Oan-200">
          <mxGeometry x="140" width="60" height="20" as="geometry">
            <mxRectangle width="60" height="20" as="alternateBounds" />
          </mxGeometry>
        </mxCell>
        <mxCell id="28t_TmLzIudg9PH67Oan-204" value="2" style="shape=partialRectangle;html=1;whiteSpace=wrap;connectable=0;fillColor=none;top=0;left=0;bottom=0;right=0;overflow=hidden;fontFamily=Source Code Pro;fontSource=https%3A%2F%2Ffonts.googleapis.com%2Fcss%3Ffamily%3DSource%2BCode%2BPro;fontColor=#33FF33;" vertex="1" parent="28t_TmLzIudg9PH67Oan-200">
          <mxGeometry x="200" width="60" height="20" as="geometry">
            <mxRectangle width="60" height="20" as="alternateBounds" />
          </mxGeometry>
        </mxCell>
        <mxCell id="28t_TmLzIudg9PH67Oan-205" value="1" style="shape=partialRectangle;html=1;whiteSpace=wrap;connectable=0;fillColor=none;top=0;left=0;bottom=0;right=0;overflow=hidden;fontFamily=Source Code Pro;fontSource=https%3A%2F%2Ffonts.googleapis.com%2Fcss%3Ffamily%3DSource%2BCode%2BPro;" vertex="1" parent="28t_TmLzIudg9PH67Oan-200">
          <mxGeometry x="260" width="90" height="20" as="geometry">
            <mxRectangle width="90" height="20" as="alternateBounds" />
          </mxGeometry>
        </mxCell>
        <mxCell id="28t_TmLzIudg9PH67Oan-206" style="shape=tableRow;horizontal=0;startSize=0;swimlaneHead=0;swimlaneBody=0;top=0;left=0;bottom=0;right=0;collapsible=0;dropTarget=0;fillColor=none;points=[[0,0.5],[1,0.5]];portConstraint=eastwest;fontFamily=Source Code Pro;fontSource=https%3A%2F%2Ffonts.googleapis.com%2Fcss%3Ffamily%3DSource%2BCode%2BPro;" vertex="1" parent="28t_TmLzIudg9PH67Oan-163">
          <mxGeometry y="140" width="350" height="20" as="geometry" />
        </mxCell>
        <mxCell id="28t_TmLzIudg9PH67Oan-207" value="r" style="shape=partialRectangle;html=1;whiteSpace=wrap;connectable=0;fillColor=none;top=0;left=0;bottom=0;right=0;overflow=hidden;fontFamily=Source Code Pro;fontSource=https%3A%2F%2Ffonts.googleapis.com%2Fcss%3Ffamily%3DSource%2BCode%2BPro;" vertex="1" parent="28t_TmLzIudg9PH67Oan-206">
          <mxGeometry width="70" height="20" as="geometry">
            <mxRectangle width="70" height="20" as="alternateBounds" />
          </mxGeometry>
        </mxCell>
        <mxCell id="28t_TmLzIudg9PH67Oan-208" value="stack" style="shape=partialRectangle;html=1;whiteSpace=wrap;connectable=0;fillColor=none;top=0;left=0;bottom=0;right=0;overflow=hidden;fontFamily=Source Code Pro;fontSource=https%3A%2F%2Ffonts.googleapis.com%2Fcss%3Ffamily%3DSource%2BCode%2BPro;" vertex="1" parent="28t_TmLzIudg9PH67Oan-206">
          <mxGeometry x="70" width="70" height="20" as="geometry">
            <mxRectangle width="70" height="20" as="alternateBounds" />
          </mxGeometry>
        </mxCell>
        <mxCell id="28t_TmLzIudg9PH67Oan-209" value="1023" style="shape=partialRectangle;html=1;whiteSpace=wrap;connectable=0;fillColor=none;top=0;left=0;bottom=0;right=0;overflow=hidden;fontFamily=Source Code Pro;fontSource=https%3A%2F%2Ffonts.googleapis.com%2Fcss%3Ffamily%3DSource%2BCode%2BPro;" vertex="1" parent="28t_TmLzIudg9PH67Oan-206">
          <mxGeometry x="140" width="60" height="20" as="geometry">
            <mxRectangle width="60" height="20" as="alternateBounds" />
          </mxGeometry>
        </mxCell>
        <mxCell id="28t_TmLzIudg9PH67Oan-210" value="2" style="shape=partialRectangle;html=1;whiteSpace=wrap;connectable=0;fillColor=none;top=0;left=0;bottom=0;right=0;overflow=hidden;fontFamily=Source Code Pro;fontSource=https%3A%2F%2Ffonts.googleapis.com%2Fcss%3Ffamily%3DSource%2BCode%2BPro;fontColor=#33FF33;" vertex="1" parent="28t_TmLzIudg9PH67Oan-206">
          <mxGeometry x="200" width="60" height="20" as="geometry">
            <mxRectangle width="60" height="20" as="alternateBounds" />
          </mxGeometry>
        </mxCell>
        <mxCell id="28t_TmLzIudg9PH67Oan-211" value="4" style="shape=partialRectangle;html=1;whiteSpace=wrap;connectable=0;fillColor=none;top=0;left=0;bottom=0;right=0;overflow=hidden;fontFamily=Source Code Pro;fontSource=https%3A%2F%2Ffonts.googleapis.com%2Fcss%3Ffamily%3DSource%2BCode%2BPro;" vertex="1" parent="28t_TmLzIudg9PH67Oan-206">
          <mxGeometry x="260" width="90" height="20" as="geometry">
            <mxRectangle width="90" height="20" as="alternateBounds" />
          </mxGeometry>
        </mxCell>
        <mxCell id="28t_TmLzIudg9PH67Oan-212" style="shape=tableRow;horizontal=0;startSize=0;swimlaneHead=0;swimlaneBody=0;top=0;left=0;bottom=0;right=0;collapsible=0;dropTarget=0;fillColor=none;points=[[0,0.5],[1,0.5]];portConstraint=eastwest;fontFamily=Source Code Pro;fontSource=https%3A%2F%2Ffonts.googleapis.com%2Fcss%3Ffamily%3DSource%2BCode%2BPro;" vertex="1" parent="28t_TmLzIudg9PH67Oan-163">
          <mxGeometry y="160" width="350" height="20" as="geometry" />
        </mxCell>
        <mxCell id="28t_TmLzIudg9PH67Oan-213" value="w" style="shape=partialRectangle;html=1;whiteSpace=wrap;connectable=0;fillColor=none;top=0;left=0;bottom=0;right=0;overflow=hidden;fontFamily=Source Code Pro;fontSource=https%3A%2F%2Ffonts.googleapis.com%2Fcss%3Ffamily%3DSource%2BCode%2BPro;" vertex="1" parent="28t_TmLzIudg9PH67Oan-212">
          <mxGeometry width="70" height="20" as="geometry">
            <mxRectangle width="70" height="20" as="alternateBounds" />
          </mxGeometry>
        </mxCell>
        <mxCell id="28t_TmLzIudg9PH67Oan-214" value="stack" style="shape=partialRectangle;html=1;whiteSpace=wrap;connectable=0;fillColor=none;top=0;left=0;bottom=0;right=0;overflow=hidden;fontFamily=Source Code Pro;fontSource=https%3A%2F%2Ffonts.googleapis.com%2Fcss%3Ffamily%3DSource%2BCode%2BPro;" vertex="1" parent="28t_TmLzIudg9PH67Oan-212">
          <mxGeometry x="70" width="70" height="20" as="geometry">
            <mxRectangle width="70" height="20" as="alternateBounds" />
          </mxGeometry>
        </mxCell>
        <mxCell id="28t_TmLzIudg9PH67Oan-215" value="1023" style="shape=partialRectangle;html=1;whiteSpace=wrap;connectable=0;fillColor=none;top=0;left=0;bottom=0;right=0;overflow=hidden;fontFamily=Source Code Pro;fontSource=https%3A%2F%2Ffonts.googleapis.com%2Fcss%3Ffamily%3DSource%2BCode%2BPro;" vertex="1" parent="28t_TmLzIudg9PH67Oan-212">
          <mxGeometry x="140" width="60" height="20" as="geometry">
            <mxRectangle width="60" height="20" as="alternateBounds" />
          </mxGeometry>
        </mxCell>
        <mxCell id="28t_TmLzIudg9PH67Oan-216" value="6" style="shape=partialRectangle;html=1;whiteSpace=wrap;connectable=0;fillColor=none;top=0;left=0;bottom=0;right=0;overflow=hidden;fontFamily=Source Code Pro;fontSource=https%3A%2F%2Ffonts.googleapis.com%2Fcss%3Ffamily%3DSource%2BCode%2BPro;" vertex="1" parent="28t_TmLzIudg9PH67Oan-212">
          <mxGeometry x="200" width="60" height="20" as="geometry">
            <mxRectangle width="60" height="20" as="alternateBounds" />
          </mxGeometry>
        </mxCell>
        <mxCell id="28t_TmLzIudg9PH67Oan-217" value="5" style="shape=partialRectangle;html=1;whiteSpace=wrap;connectable=0;fillColor=none;top=0;left=0;bottom=0;right=0;overflow=hidden;fontFamily=Source Code Pro;fontSource=https%3A%2F%2Ffonts.googleapis.com%2Fcss%3Ffamily%3DSource%2BCode%2BPro;" vertex="1" parent="28t_TmLzIudg9PH67Oan-212">
          <mxGeometry x="260" width="90" height="20" as="geometry">
            <mxRectangle width="90" height="20" as="alternateBounds" />
          </mxGeometry>
        </mxCell>
        <mxCell id="28t_TmLzIudg9PH67Oan-218" style="shape=tableRow;horizontal=0;startSize=0;swimlaneHead=0;swimlaneBody=0;top=0;left=0;bottom=0;right=0;collapsible=0;dropTarget=0;fillColor=none;points=[[0,0.5],[1,0.5]];portConstraint=eastwest;fontFamily=Source Code Pro;fontSource=https%3A%2F%2Ffonts.googleapis.com%2Fcss%3Ffamily%3DSource%2BCode%2BPro;" vertex="1" parent="28t_TmLzIudg9PH67Oan-163">
          <mxGeometry y="180" width="350" height="20" as="geometry" />
        </mxCell>
        <mxCell id="28t_TmLzIudg9PH67Oan-219" value="w" style="shape=partialRectangle;html=1;whiteSpace=wrap;connectable=0;fillColor=none;top=0;left=0;bottom=0;right=0;overflow=hidden;fontFamily=Source Code Pro;fontSource=https%3A%2F%2Ffonts.googleapis.com%2Fcss%3Ffamily%3DSource%2BCode%2BPro;" vertex="1" parent="28t_TmLzIudg9PH67Oan-218">
          <mxGeometry width="70" height="20" as="geometry">
            <mxRectangle width="70" height="20" as="alternateBounds" />
          </mxGeometry>
        </mxCell>
        <mxCell id="28t_TmLzIudg9PH67Oan-220" value="stack" style="shape=partialRectangle;html=1;whiteSpace=wrap;connectable=0;fillColor=none;top=0;left=0;bottom=0;right=0;overflow=hidden;fontFamily=Source Code Pro;fontSource=https%3A%2F%2Ffonts.googleapis.com%2Fcss%3Ffamily%3DSource%2BCode%2BPro;" vertex="1" parent="28t_TmLzIudg9PH67Oan-218">
          <mxGeometry x="70" width="70" height="20" as="geometry">
            <mxRectangle width="70" height="20" as="alternateBounds" />
          </mxGeometry>
        </mxCell>
        <mxCell id="28t_TmLzIudg9PH67Oan-221" value="1023" style="shape=partialRectangle;html=1;whiteSpace=wrap;connectable=0;fillColor=none;top=0;left=0;bottom=0;right=0;overflow=hidden;fontFamily=Source Code Pro;fontSource=https%3A%2F%2Ffonts.googleapis.com%2Fcss%3Ffamily%3DSource%2BCode%2BPro;" vertex="1" parent="28t_TmLzIudg9PH67Oan-218">
          <mxGeometry x="140" width="60" height="20" as="geometry">
            <mxRectangle width="60" height="20" as="alternateBounds" />
          </mxGeometry>
        </mxCell>
        <mxCell id="28t_TmLzIudg9PH67Oan-222" value="6" style="shape=partialRectangle;html=1;whiteSpace=wrap;connectable=0;fillColor=none;top=0;left=0;bottom=0;right=0;overflow=hidden;fontFamily=Source Code Pro;fontSource=https%3A%2F%2Ffonts.googleapis.com%2Fcss%3Ffamily%3DSource%2BCode%2BPro;" vertex="1" parent="28t_TmLzIudg9PH67Oan-218">
          <mxGeometry x="200" width="60" height="20" as="geometry">
            <mxRectangle width="60" height="20" as="alternateBounds" />
          </mxGeometry>
        </mxCell>
        <mxCell id="28t_TmLzIudg9PH67Oan-223" value="8" style="shape=partialRectangle;html=1;whiteSpace=wrap;connectable=0;fillColor=none;top=0;left=0;bottom=0;right=0;overflow=hidden;fontFamily=Source Code Pro;fontSource=https%3A%2F%2Ffonts.googleapis.com%2Fcss%3Ffamily%3DSource%2BCode%2BPro;" vertex="1" parent="28t_TmLzIudg9PH67Oan-218">
          <mxGeometry x="260" width="90" height="20" as="geometry">
            <mxRectangle width="90" height="20" as="alternateBounds" />
          </mxGeometry>
        </mxCell>
        <mxCell id="28t_TmLzIudg9PH67Oan-232" value="" style="curved=1;endArrow=classic;html=1;rounded=0;fontFamily=Source Code Pro;fontSource=https%3A%2F%2Ffonts.googleapis.com%2Fcss%3Ffamily%3DSource%2BCode%2BPro;exitX=1;exitY=0.5;exitDx=0;exitDy=0;entryX=1;entryY=0.5;entryDx=0;entryDy=0;strokeColor=#FF33FF;" edge="1" parent="28t_TmLzIudg9PH67Oan-163" source="28t_TmLzIudg9PH67Oan-182" target="28t_TmLzIudg9PH67Oan-176">
          <mxGeometry width="50" height="50" relative="1" as="geometry">
            <mxPoint x="70" y="70" as="sourcePoint" />
            <mxPoint x="390" y="150" as="targetPoint" />
            <Array as="points">
              <mxPoint x="380" y="60" />
            </Array>
          </mxGeometry>
        </mxCell>
        <mxCell id="28t_TmLzIudg9PH67Oan-233" value="" style="curved=1;endArrow=classic;html=1;rounded=0;fontFamily=Source Code Pro;fontSource=https%3A%2F%2Ffonts.googleapis.com%2Fcss%3Ffamily%3DSource%2BCode%2BPro;exitX=1;exitY=0.5;exitDx=0;exitDy=0;entryX=1;entryY=0.5;entryDx=0;entryDy=0;strokeColor=#3333FF;" edge="1" parent="28t_TmLzIudg9PH67Oan-163" source="28t_TmLzIudg9PH67Oan-194" target="28t_TmLzIudg9PH67Oan-188">
          <mxGeometry width="50" height="50" relative="1" as="geometry">
            <mxPoint x="360" y="80" as="sourcePoint" />
            <mxPoint x="360" y="60" as="targetPoint" />
            <Array as="points">
              <mxPoint x="390" y="100" />
            </Array>
          </mxGeometry>
        </mxCell>
        <mxCell id="28t_TmLzIudg9PH67Oan-234" value="" style="curved=1;endArrow=classic;html=1;rounded=0;fontFamily=Source Code Pro;fontSource=https%3A%2F%2Ffonts.googleapis.com%2Fcss%3Ffamily%3DSource%2BCode%2BPro;exitX=1;exitY=0.5;exitDx=0;exitDy=0;entryX=1;entryY=0.5;entryDx=0;entryDy=0;fontColor=#66FF66;strokeColor=#66FF66;" edge="1" parent="28t_TmLzIudg9PH67Oan-163" source="28t_TmLzIudg9PH67Oan-206" target="28t_TmLzIudg9PH67Oan-200">
          <mxGeometry width="50" height="50" relative="1" as="geometry">
            <mxPoint x="360" y="120" as="sourcePoint" />
            <mxPoint x="360" y="100" as="targetPoint" />
            <Array as="points">
              <mxPoint x="390" y="140" />
            </Array>
          </mxGeometry>
        </mxCell>
        <mxCell id="28t_TmLzIudg9PH67Oan-224" value="State circuit (sorted by tag, addr, rw_counter" style="text;html=1;strokeColor=none;fillColor=none;align=left;verticalAlign=middle;whiteSpace=wrap;rounded=0;fontFamily=Source Code Pro;fontSource=https%3A%2F%2Ffonts.googleapis.com%2Fcss%3Ffamily%3DSource%2BCode%2BPro;" vertex="1" parent="1">
          <mxGeometry x="870" y="330" width="340" height="30" as="geometry" />
        </mxCell>
        <mxCell id="28t_TmLzIudg9PH67Oan-230" value="if r/w==r, assert prev_row.value==this_row.value" style="text;html=1;strokeColor=none;fillColor=none;align=left;verticalAlign=middle;whiteSpace=wrap;rounded=0;fontFamily=Source Code Pro;fontSource=https%3A%2F%2Ffonts.googleapis.com%2Fcss%3Ffamily%3DSource%2BCode%2BPro;" vertex="1" parent="1">
          <mxGeometry x="870" y="540" width="350" height="30" as="geometry" />
        </mxCell>
        <mxCell id="28t_TmLzIudg9PH67Oan-238" value="" style="shape=table;html=1;whiteSpace=wrap;startSize=0;container=1;collapsible=0;childLayout=tableLayout;fontFamily=Source Code Pro;fontSource=https%3A%2F%2Ffonts.googleapis.com%2Fcss%3Ffamily%3DSource%2BCode%2BPro;fontColor=#66FF66;strokeColor=#C4C4C4;" vertex="1" parent="1">
          <mxGeometry x="410" y="260" width="110" height="41" as="geometry" />
        </mxCell>
        <mxCell id="28t_TmLzIudg9PH67Oan-239" value="" style="shape=tableRow;horizontal=0;startSize=0;swimlaneHead=0;swimlaneBody=0;top=0;left=0;bottom=0;right=0;collapsible=0;dropTarget=0;fillColor=none;points=[[0,0.5],[1,0.5]];portConstraint=eastwest;fontFamily=Source Code Pro;fontSource=https%3A%2F%2Ffonts.googleapis.com%2Fcss%3Ffamily%3DSource%2BCode%2BPro;fontColor=#66FF66;strokeColor=#C4C4C4;" vertex="1" parent="28t_TmLzIudg9PH67Oan-238">
          <mxGeometry width="110" height="6" as="geometry" />
        </mxCell>
        <mxCell id="28t_TmLzIudg9PH67Oan-240" value="" style="shape=partialRectangle;html=1;whiteSpace=wrap;connectable=0;fillColor=none;top=0;left=0;bottom=0;right=0;overflow=hidden;fontFamily=Source Code Pro;fontSource=https%3A%2F%2Ffonts.googleapis.com%2Fcss%3Ffamily%3DSource%2BCode%2BPro;fontColor=#66FF66;strokeColor=#C4C4C4;" vertex="1" parent="28t_TmLzIudg9PH67Oan-239">
          <mxGeometry width="22" height="6" as="geometry">
            <mxRectangle width="22" height="6" as="alternateBounds" />
          </mxGeometry>
        </mxCell>
        <mxCell id="28t_TmLzIudg9PH67Oan-241" value="" style="shape=partialRectangle;html=1;whiteSpace=wrap;connectable=0;fillColor=none;top=0;left=0;bottom=0;right=0;overflow=hidden;fontFamily=Source Code Pro;fontSource=https%3A%2F%2Ffonts.googleapis.com%2Fcss%3Ffamily%3DSource%2BCode%2BPro;fontColor=#66FF66;strokeColor=#C4C4C4;" vertex="1" parent="28t_TmLzIudg9PH67Oan-239">
          <mxGeometry x="22" width="22" height="6" as="geometry">
            <mxRectangle width="22" height="6" as="alternateBounds" />
          </mxGeometry>
        </mxCell>
        <mxCell id="28t_TmLzIudg9PH67Oan-242" value="" style="shape=partialRectangle;html=1;whiteSpace=wrap;connectable=0;fillColor=none;top=0;left=0;bottom=0;right=0;overflow=hidden;fontFamily=Source Code Pro;fontSource=https%3A%2F%2Ffonts.googleapis.com%2Fcss%3Ffamily%3DSource%2BCode%2BPro;fontColor=#66FF66;strokeColor=#C4C4C4;" vertex="1" parent="28t_TmLzIudg9PH67Oan-239">
          <mxGeometry x="44" width="22" height="6" as="geometry">
            <mxRectangle width="22" height="6" as="alternateBounds" />
          </mxGeometry>
        </mxCell>
        <mxCell id="28t_TmLzIudg9PH67Oan-271" style="shape=partialRectangle;html=1;whiteSpace=wrap;connectable=0;fillColor=none;top=0;left=0;bottom=0;right=0;overflow=hidden;fontFamily=Source Code Pro;fontSource=https%3A%2F%2Ffonts.googleapis.com%2Fcss%3Ffamily%3DSource%2BCode%2BPro;fontColor=#66FF66;strokeColor=#C4C4C4;" vertex="1" parent="28t_TmLzIudg9PH67Oan-239">
          <mxGeometry x="66" width="22" height="6" as="geometry">
            <mxRectangle width="22" height="6" as="alternateBounds" />
          </mxGeometry>
        </mxCell>
        <mxCell id="28t_TmLzIudg9PH67Oan-278" style="shape=partialRectangle;html=1;whiteSpace=wrap;connectable=0;fillColor=none;top=0;left=0;bottom=0;right=0;overflow=hidden;fontFamily=Source Code Pro;fontSource=https%3A%2F%2Ffonts.googleapis.com%2Fcss%3Ffamily%3DSource%2BCode%2BPro;fontColor=#66FF66;strokeColor=#C4C4C4;" vertex="1" parent="28t_TmLzIudg9PH67Oan-239">
          <mxGeometry x="88" width="22" height="6" as="geometry">
            <mxRectangle width="22" height="6" as="alternateBounds" />
          </mxGeometry>
        </mxCell>
        <mxCell id="28t_TmLzIudg9PH67Oan-243" value="" style="shape=tableRow;horizontal=0;startSize=0;swimlaneHead=0;swimlaneBody=0;top=0;left=0;bottom=0;right=0;collapsible=0;dropTarget=0;fillColor=none;points=[[0,0.5],[1,0.5]];portConstraint=eastwest;fontFamily=Source Code Pro;fontSource=https%3A%2F%2Ffonts.googleapis.com%2Fcss%3Ffamily%3DSource%2BCode%2BPro;fontColor=#66FF66;strokeColor=#C4C4C4;" vertex="1" parent="28t_TmLzIudg9PH67Oan-238">
          <mxGeometry y="6" width="110" height="6" as="geometry" />
        </mxCell>
        <mxCell id="28t_TmLzIudg9PH67Oan-244" value="" style="shape=partialRectangle;html=1;whiteSpace=wrap;connectable=0;fillColor=none;top=0;left=0;bottom=0;right=0;overflow=hidden;fontFamily=Source Code Pro;fontSource=https%3A%2F%2Ffonts.googleapis.com%2Fcss%3Ffamily%3DSource%2BCode%2BPro;fontColor=#66FF66;strokeColor=#C4C4C4;" vertex="1" parent="28t_TmLzIudg9PH67Oan-243">
          <mxGeometry width="22" height="6" as="geometry">
            <mxRectangle width="22" height="6" as="alternateBounds" />
          </mxGeometry>
        </mxCell>
        <mxCell id="28t_TmLzIudg9PH67Oan-245" value="" style="shape=partialRectangle;html=1;whiteSpace=wrap;connectable=0;fillColor=none;top=0;left=0;bottom=0;right=0;overflow=hidden;fontFamily=Source Code Pro;fontSource=https%3A%2F%2Ffonts.googleapis.com%2Fcss%3Ffamily%3DSource%2BCode%2BPro;fontColor=#66FF66;strokeColor=#C4C4C4;" vertex="1" parent="28t_TmLzIudg9PH67Oan-243">
          <mxGeometry x="22" width="22" height="6" as="geometry">
            <mxRectangle width="22" height="6" as="alternateBounds" />
          </mxGeometry>
        </mxCell>
        <mxCell id="28t_TmLzIudg9PH67Oan-246" value="" style="shape=partialRectangle;html=1;whiteSpace=wrap;connectable=0;fillColor=none;top=0;left=0;bottom=0;right=0;overflow=hidden;fontFamily=Source Code Pro;fontSource=https%3A%2F%2Ffonts.googleapis.com%2Fcss%3Ffamily%3DSource%2BCode%2BPro;fontColor=#66FF66;strokeColor=#C4C4C4;" vertex="1" parent="28t_TmLzIudg9PH67Oan-243">
          <mxGeometry x="44" width="22" height="6" as="geometry">
            <mxRectangle width="22" height="6" as="alternateBounds" />
          </mxGeometry>
        </mxCell>
        <mxCell id="28t_TmLzIudg9PH67Oan-272" style="shape=partialRectangle;html=1;whiteSpace=wrap;connectable=0;fillColor=none;top=0;left=0;bottom=0;right=0;overflow=hidden;fontFamily=Source Code Pro;fontSource=https%3A%2F%2Ffonts.googleapis.com%2Fcss%3Ffamily%3DSource%2BCode%2BPro;fontColor=#66FF66;strokeColor=#C4C4C4;" vertex="1" parent="28t_TmLzIudg9PH67Oan-243">
          <mxGeometry x="66" width="22" height="6" as="geometry">
            <mxRectangle width="22" height="6" as="alternateBounds" />
          </mxGeometry>
        </mxCell>
        <mxCell id="28t_TmLzIudg9PH67Oan-279" style="shape=partialRectangle;html=1;whiteSpace=wrap;connectable=0;fillColor=none;top=0;left=0;bottom=0;right=0;overflow=hidden;fontFamily=Source Code Pro;fontSource=https%3A%2F%2Ffonts.googleapis.com%2Fcss%3Ffamily%3DSource%2BCode%2BPro;fontColor=#66FF66;strokeColor=#C4C4C4;" vertex="1" parent="28t_TmLzIudg9PH67Oan-243">
          <mxGeometry x="88" width="22" height="6" as="geometry">
            <mxRectangle width="22" height="6" as="alternateBounds" />
          </mxGeometry>
        </mxCell>
        <mxCell id="28t_TmLzIudg9PH67Oan-247" value="" style="shape=tableRow;horizontal=0;startSize=0;swimlaneHead=0;swimlaneBody=0;top=0;left=0;bottom=0;right=0;collapsible=0;dropTarget=0;fillColor=none;points=[[0,0.5],[1,0.5]];portConstraint=eastwest;fontFamily=Source Code Pro;fontSource=https%3A%2F%2Ffonts.googleapis.com%2Fcss%3Ffamily%3DSource%2BCode%2BPro;fontColor=#66FF66;strokeColor=#C4C4C4;" vertex="1" parent="28t_TmLzIudg9PH67Oan-238">
          <mxGeometry y="12" width="110" height="5" as="geometry" />
        </mxCell>
        <mxCell id="28t_TmLzIudg9PH67Oan-248" value="" style="shape=partialRectangle;html=1;whiteSpace=wrap;connectable=0;fillColor=none;top=0;left=0;bottom=0;right=0;overflow=hidden;fontFamily=Source Code Pro;fontSource=https%3A%2F%2Ffonts.googleapis.com%2Fcss%3Ffamily%3DSource%2BCode%2BPro;fontColor=#66FF66;strokeColor=#C4C4C4;" vertex="1" parent="28t_TmLzIudg9PH67Oan-247">
          <mxGeometry width="22" height="5" as="geometry">
            <mxRectangle width="22" height="5" as="alternateBounds" />
          </mxGeometry>
        </mxCell>
        <mxCell id="28t_TmLzIudg9PH67Oan-249" value="" style="shape=partialRectangle;html=1;whiteSpace=wrap;connectable=0;fillColor=none;top=0;left=0;bottom=0;right=0;overflow=hidden;fontFamily=Source Code Pro;fontSource=https%3A%2F%2Ffonts.googleapis.com%2Fcss%3Ffamily%3DSource%2BCode%2BPro;fontColor=#66FF66;strokeColor=#C4C4C4;" vertex="1" parent="28t_TmLzIudg9PH67Oan-247">
          <mxGeometry x="22" width="22" height="5" as="geometry">
            <mxRectangle width="22" height="5" as="alternateBounds" />
          </mxGeometry>
        </mxCell>
        <mxCell id="28t_TmLzIudg9PH67Oan-250" value="" style="shape=partialRectangle;html=1;whiteSpace=wrap;connectable=0;fillColor=none;top=0;left=0;bottom=0;right=0;overflow=hidden;pointerEvents=1;fontFamily=Source Code Pro;fontSource=https%3A%2F%2Ffonts.googleapis.com%2Fcss%3Ffamily%3DSource%2BCode%2BPro;fontColor=#66FF66;strokeColor=#C4C4C4;" vertex="1" parent="28t_TmLzIudg9PH67Oan-247">
          <mxGeometry x="44" width="22" height="5" as="geometry">
            <mxRectangle width="22" height="5" as="alternateBounds" />
          </mxGeometry>
        </mxCell>
        <mxCell id="28t_TmLzIudg9PH67Oan-273" style="shape=partialRectangle;html=1;whiteSpace=wrap;connectable=0;fillColor=none;top=0;left=0;bottom=0;right=0;overflow=hidden;pointerEvents=1;fontFamily=Source Code Pro;fontSource=https%3A%2F%2Ffonts.googleapis.com%2Fcss%3Ffamily%3DSource%2BCode%2BPro;fontColor=#66FF66;strokeColor=#C4C4C4;" vertex="1" parent="28t_TmLzIudg9PH67Oan-247">
          <mxGeometry x="66" width="22" height="5" as="geometry">
            <mxRectangle width="22" height="5" as="alternateBounds" />
          </mxGeometry>
        </mxCell>
        <mxCell id="28t_TmLzIudg9PH67Oan-280" style="shape=partialRectangle;html=1;whiteSpace=wrap;connectable=0;fillColor=none;top=0;left=0;bottom=0;right=0;overflow=hidden;pointerEvents=1;fontFamily=Source Code Pro;fontSource=https%3A%2F%2Ffonts.googleapis.com%2Fcss%3Ffamily%3DSource%2BCode%2BPro;fontColor=#66FF66;strokeColor=#C4C4C4;" vertex="1" parent="28t_TmLzIudg9PH67Oan-247">
          <mxGeometry x="88" width="22" height="5" as="geometry">
            <mxRectangle width="22" height="5" as="alternateBounds" />
          </mxGeometry>
        </mxCell>
        <mxCell id="28t_TmLzIudg9PH67Oan-251" style="shape=tableRow;horizontal=0;startSize=0;swimlaneHead=0;swimlaneBody=0;top=0;left=0;bottom=0;right=0;collapsible=0;dropTarget=0;fillColor=none;points=[[0,0.5],[1,0.5]];portConstraint=eastwest;fontFamily=Source Code Pro;fontSource=https%3A%2F%2Ffonts.googleapis.com%2Fcss%3Ffamily%3DSource%2BCode%2BPro;fontColor=#66FF66;strokeColor=#C4C4C4;" vertex="1" parent="28t_TmLzIudg9PH67Oan-238">
          <mxGeometry y="17" width="110" height="6" as="geometry" />
        </mxCell>
        <mxCell id="28t_TmLzIudg9PH67Oan-252" style="shape=partialRectangle;html=1;whiteSpace=wrap;connectable=0;fillColor=none;top=0;left=0;bottom=0;right=0;overflow=hidden;fontFamily=Source Code Pro;fontSource=https%3A%2F%2Ffonts.googleapis.com%2Fcss%3Ffamily%3DSource%2BCode%2BPro;fontColor=#66FF66;strokeColor=#C4C4C4;" vertex="1" parent="28t_TmLzIudg9PH67Oan-251">
          <mxGeometry width="22" height="6" as="geometry">
            <mxRectangle width="22" height="6" as="alternateBounds" />
          </mxGeometry>
        </mxCell>
        <mxCell id="28t_TmLzIudg9PH67Oan-253" style="shape=partialRectangle;html=1;whiteSpace=wrap;connectable=0;fillColor=none;top=0;left=0;bottom=0;right=0;overflow=hidden;fontFamily=Source Code Pro;fontSource=https%3A%2F%2Ffonts.googleapis.com%2Fcss%3Ffamily%3DSource%2BCode%2BPro;fontColor=#66FF66;strokeColor=#C4C4C4;" vertex="1" parent="28t_TmLzIudg9PH67Oan-251">
          <mxGeometry x="22" width="22" height="6" as="geometry">
            <mxRectangle width="22" height="6" as="alternateBounds" />
          </mxGeometry>
        </mxCell>
        <mxCell id="28t_TmLzIudg9PH67Oan-254" style="shape=partialRectangle;html=1;whiteSpace=wrap;connectable=0;fillColor=none;top=0;left=0;bottom=0;right=0;overflow=hidden;pointerEvents=1;fontFamily=Source Code Pro;fontSource=https%3A%2F%2Ffonts.googleapis.com%2Fcss%3Ffamily%3DSource%2BCode%2BPro;fontColor=#66FF66;strokeColor=#C4C4C4;" vertex="1" parent="28t_TmLzIudg9PH67Oan-251">
          <mxGeometry x="44" width="22" height="6" as="geometry">
            <mxRectangle width="22" height="6" as="alternateBounds" />
          </mxGeometry>
        </mxCell>
        <mxCell id="28t_TmLzIudg9PH67Oan-274" style="shape=partialRectangle;html=1;whiteSpace=wrap;connectable=0;fillColor=none;top=0;left=0;bottom=0;right=0;overflow=hidden;pointerEvents=1;fontFamily=Source Code Pro;fontSource=https%3A%2F%2Ffonts.googleapis.com%2Fcss%3Ffamily%3DSource%2BCode%2BPro;fontColor=#66FF66;strokeColor=#C4C4C4;" vertex="1" parent="28t_TmLzIudg9PH67Oan-251">
          <mxGeometry x="66" width="22" height="6" as="geometry">
            <mxRectangle width="22" height="6" as="alternateBounds" />
          </mxGeometry>
        </mxCell>
        <mxCell id="28t_TmLzIudg9PH67Oan-281" style="shape=partialRectangle;html=1;whiteSpace=wrap;connectable=0;fillColor=none;top=0;left=0;bottom=0;right=0;overflow=hidden;pointerEvents=1;fontFamily=Source Code Pro;fontSource=https%3A%2F%2Ffonts.googleapis.com%2Fcss%3Ffamily%3DSource%2BCode%2BPro;fontColor=#66FF66;strokeColor=#C4C4C4;" vertex="1" parent="28t_TmLzIudg9PH67Oan-251">
          <mxGeometry x="88" width="22" height="6" as="geometry">
            <mxRectangle width="22" height="6" as="alternateBounds" />
          </mxGeometry>
        </mxCell>
        <mxCell id="28t_TmLzIudg9PH67Oan-255" style="shape=tableRow;horizontal=0;startSize=0;swimlaneHead=0;swimlaneBody=0;top=0;left=0;bottom=0;right=0;collapsible=0;dropTarget=0;fillColor=none;points=[[0,0.5],[1,0.5]];portConstraint=eastwest;fontFamily=Source Code Pro;fontSource=https%3A%2F%2Ffonts.googleapis.com%2Fcss%3Ffamily%3DSource%2BCode%2BPro;fontColor=#66FF66;strokeColor=#C4C4C4;" vertex="1" parent="28t_TmLzIudg9PH67Oan-238">
          <mxGeometry y="23" width="110" height="6" as="geometry" />
        </mxCell>
        <mxCell id="28t_TmLzIudg9PH67Oan-256" style="shape=partialRectangle;html=1;whiteSpace=wrap;connectable=0;fillColor=none;top=0;left=0;bottom=0;right=0;overflow=hidden;fontFamily=Source Code Pro;fontSource=https%3A%2F%2Ffonts.googleapis.com%2Fcss%3Ffamily%3DSource%2BCode%2BPro;fontColor=#66FF66;strokeColor=#C4C4C4;" vertex="1" parent="28t_TmLzIudg9PH67Oan-255">
          <mxGeometry width="22" height="6" as="geometry">
            <mxRectangle width="22" height="6" as="alternateBounds" />
          </mxGeometry>
        </mxCell>
        <mxCell id="28t_TmLzIudg9PH67Oan-257" style="shape=partialRectangle;html=1;whiteSpace=wrap;connectable=0;fillColor=none;top=0;left=0;bottom=0;right=0;overflow=hidden;fontFamily=Source Code Pro;fontSource=https%3A%2F%2Ffonts.googleapis.com%2Fcss%3Ffamily%3DSource%2BCode%2BPro;fontColor=#66FF66;strokeColor=#C4C4C4;" vertex="1" parent="28t_TmLzIudg9PH67Oan-255">
          <mxGeometry x="22" width="22" height="6" as="geometry">
            <mxRectangle width="22" height="6" as="alternateBounds" />
          </mxGeometry>
        </mxCell>
        <mxCell id="28t_TmLzIudg9PH67Oan-258" style="shape=partialRectangle;html=1;whiteSpace=wrap;connectable=0;fillColor=none;top=0;left=0;bottom=0;right=0;overflow=hidden;pointerEvents=1;fontFamily=Source Code Pro;fontSource=https%3A%2F%2Ffonts.googleapis.com%2Fcss%3Ffamily%3DSource%2BCode%2BPro;fontColor=#66FF66;strokeColor=#C4C4C4;" vertex="1" parent="28t_TmLzIudg9PH67Oan-255">
          <mxGeometry x="44" width="22" height="6" as="geometry">
            <mxRectangle width="22" height="6" as="alternateBounds" />
          </mxGeometry>
        </mxCell>
        <mxCell id="28t_TmLzIudg9PH67Oan-275" style="shape=partialRectangle;html=1;whiteSpace=wrap;connectable=0;fillColor=none;top=0;left=0;bottom=0;right=0;overflow=hidden;pointerEvents=1;fontFamily=Source Code Pro;fontSource=https%3A%2F%2Ffonts.googleapis.com%2Fcss%3Ffamily%3DSource%2BCode%2BPro;fontColor=#66FF66;strokeColor=#C4C4C4;" vertex="1" parent="28t_TmLzIudg9PH67Oan-255">
          <mxGeometry x="66" width="22" height="6" as="geometry">
            <mxRectangle width="22" height="6" as="alternateBounds" />
          </mxGeometry>
        </mxCell>
        <mxCell id="28t_TmLzIudg9PH67Oan-282" style="shape=partialRectangle;html=1;whiteSpace=wrap;connectable=0;fillColor=none;top=0;left=0;bottom=0;right=0;overflow=hidden;pointerEvents=1;fontFamily=Source Code Pro;fontSource=https%3A%2F%2Ffonts.googleapis.com%2Fcss%3Ffamily%3DSource%2BCode%2BPro;fontColor=#66FF66;strokeColor=#C4C4C4;" vertex="1" parent="28t_TmLzIudg9PH67Oan-255">
          <mxGeometry x="88" width="22" height="6" as="geometry">
            <mxRectangle width="22" height="6" as="alternateBounds" />
          </mxGeometry>
        </mxCell>
        <mxCell id="28t_TmLzIudg9PH67Oan-259" style="shape=tableRow;horizontal=0;startSize=0;swimlaneHead=0;swimlaneBody=0;top=0;left=0;bottom=0;right=0;collapsible=0;dropTarget=0;fillColor=none;points=[[0,0.5],[1,0.5]];portConstraint=eastwest;fontFamily=Source Code Pro;fontSource=https%3A%2F%2Ffonts.googleapis.com%2Fcss%3Ffamily%3DSource%2BCode%2BPro;fontColor=#66FF66;strokeColor=#C4C4C4;" vertex="1" parent="28t_TmLzIudg9PH67Oan-238">
          <mxGeometry y="29" width="110" height="6" as="geometry" />
        </mxCell>
        <mxCell id="28t_TmLzIudg9PH67Oan-260" style="shape=partialRectangle;html=1;whiteSpace=wrap;connectable=0;fillColor=none;top=0;left=0;bottom=0;right=0;overflow=hidden;fontFamily=Source Code Pro;fontSource=https%3A%2F%2Ffonts.googleapis.com%2Fcss%3Ffamily%3DSource%2BCode%2BPro;fontColor=#66FF66;strokeColor=#C4C4C4;" vertex="1" parent="28t_TmLzIudg9PH67Oan-259">
          <mxGeometry width="22" height="6" as="geometry">
            <mxRectangle width="22" height="6" as="alternateBounds" />
          </mxGeometry>
        </mxCell>
        <mxCell id="28t_TmLzIudg9PH67Oan-261" style="shape=partialRectangle;html=1;whiteSpace=wrap;connectable=0;fillColor=none;top=0;left=0;bottom=0;right=0;overflow=hidden;fontFamily=Source Code Pro;fontSource=https%3A%2F%2Ffonts.googleapis.com%2Fcss%3Ffamily%3DSource%2BCode%2BPro;fontColor=#66FF66;strokeColor=#C4C4C4;" vertex="1" parent="28t_TmLzIudg9PH67Oan-259">
          <mxGeometry x="22" width="22" height="6" as="geometry">
            <mxRectangle width="22" height="6" as="alternateBounds" />
          </mxGeometry>
        </mxCell>
        <mxCell id="28t_TmLzIudg9PH67Oan-262" style="shape=partialRectangle;html=1;whiteSpace=wrap;connectable=0;fillColor=none;top=0;left=0;bottom=0;right=0;overflow=hidden;pointerEvents=1;fontFamily=Source Code Pro;fontSource=https%3A%2F%2Ffonts.googleapis.com%2Fcss%3Ffamily%3DSource%2BCode%2BPro;fontColor=#66FF66;strokeColor=#C4C4C4;" vertex="1" parent="28t_TmLzIudg9PH67Oan-259">
          <mxGeometry x="44" width="22" height="6" as="geometry">
            <mxRectangle width="22" height="6" as="alternateBounds" />
          </mxGeometry>
        </mxCell>
        <mxCell id="28t_TmLzIudg9PH67Oan-276" style="shape=partialRectangle;html=1;whiteSpace=wrap;connectable=0;fillColor=none;top=0;left=0;bottom=0;right=0;overflow=hidden;pointerEvents=1;fontFamily=Source Code Pro;fontSource=https%3A%2F%2Ffonts.googleapis.com%2Fcss%3Ffamily%3DSource%2BCode%2BPro;fontColor=#66FF66;strokeColor=#C4C4C4;" vertex="1" parent="28t_TmLzIudg9PH67Oan-259">
          <mxGeometry x="66" width="22" height="6" as="geometry">
            <mxRectangle width="22" height="6" as="alternateBounds" />
          </mxGeometry>
        </mxCell>
        <mxCell id="28t_TmLzIudg9PH67Oan-283" style="shape=partialRectangle;html=1;whiteSpace=wrap;connectable=0;fillColor=none;top=0;left=0;bottom=0;right=0;overflow=hidden;pointerEvents=1;fontFamily=Source Code Pro;fontSource=https%3A%2F%2Ffonts.googleapis.com%2Fcss%3Ffamily%3DSource%2BCode%2BPro;fontColor=#66FF66;strokeColor=#C4C4C4;" vertex="1" parent="28t_TmLzIudg9PH67Oan-259">
          <mxGeometry x="88" width="22" height="6" as="geometry">
            <mxRectangle width="22" height="6" as="alternateBounds" />
          </mxGeometry>
        </mxCell>
        <mxCell id="28t_TmLzIudg9PH67Oan-267" style="shape=tableRow;horizontal=0;startSize=0;swimlaneHead=0;swimlaneBody=0;top=0;left=0;bottom=0;right=0;collapsible=0;dropTarget=0;fillColor=none;points=[[0,0.5],[1,0.5]];portConstraint=eastwest;fontFamily=Source Code Pro;fontSource=https%3A%2F%2Ffonts.googleapis.com%2Fcss%3Ffamily%3DSource%2BCode%2BPro;fontColor=#66FF66;strokeColor=#C4C4C4;" vertex="1" parent="28t_TmLzIudg9PH67Oan-238">
          <mxGeometry y="35" width="110" height="6" as="geometry" />
        </mxCell>
        <mxCell id="28t_TmLzIudg9PH67Oan-268" style="shape=partialRectangle;html=1;whiteSpace=wrap;connectable=0;fillColor=none;top=0;left=0;bottom=0;right=0;overflow=hidden;fontFamily=Source Code Pro;fontSource=https%3A%2F%2Ffonts.googleapis.com%2Fcss%3Ffamily%3DSource%2BCode%2BPro;fontColor=#66FF66;strokeColor=#C4C4C4;" vertex="1" parent="28t_TmLzIudg9PH67Oan-267">
          <mxGeometry width="22" height="6" as="geometry">
            <mxRectangle width="22" height="6" as="alternateBounds" />
          </mxGeometry>
        </mxCell>
        <mxCell id="28t_TmLzIudg9PH67Oan-269" style="shape=partialRectangle;html=1;whiteSpace=wrap;connectable=0;fillColor=none;top=0;left=0;bottom=0;right=0;overflow=hidden;fontFamily=Source Code Pro;fontSource=https%3A%2F%2Ffonts.googleapis.com%2Fcss%3Ffamily%3DSource%2BCode%2BPro;fontColor=#66FF66;strokeColor=#C4C4C4;" vertex="1" parent="28t_TmLzIudg9PH67Oan-267">
          <mxGeometry x="22" width="22" height="6" as="geometry">
            <mxRectangle width="22" height="6" as="alternateBounds" />
          </mxGeometry>
        </mxCell>
        <mxCell id="28t_TmLzIudg9PH67Oan-270" style="shape=partialRectangle;html=1;whiteSpace=wrap;connectable=0;fillColor=none;top=0;left=0;bottom=0;right=0;overflow=hidden;pointerEvents=1;fontFamily=Source Code Pro;fontSource=https%3A%2F%2Ffonts.googleapis.com%2Fcss%3Ffamily%3DSource%2BCode%2BPro;fontColor=#66FF66;strokeColor=#C4C4C4;" vertex="1" parent="28t_TmLzIudg9PH67Oan-267">
          <mxGeometry x="44" width="22" height="6" as="geometry">
            <mxRectangle width="22" height="6" as="alternateBounds" />
          </mxGeometry>
        </mxCell>
        <mxCell id="28t_TmLzIudg9PH67Oan-277" style="shape=partialRectangle;html=1;whiteSpace=wrap;connectable=0;fillColor=none;top=0;left=0;bottom=0;right=0;overflow=hidden;pointerEvents=1;fontFamily=Source Code Pro;fontSource=https%3A%2F%2Ffonts.googleapis.com%2Fcss%3Ffamily%3DSource%2BCode%2BPro;fontColor=#66FF66;strokeColor=#C4C4C4;" vertex="1" parent="28t_TmLzIudg9PH67Oan-267">
          <mxGeometry x="66" width="22" height="6" as="geometry">
            <mxRectangle width="22" height="6" as="alternateBounds" />
          </mxGeometry>
        </mxCell>
        <mxCell id="28t_TmLzIudg9PH67Oan-284" style="shape=partialRectangle;html=1;whiteSpace=wrap;connectable=0;fillColor=none;top=0;left=0;bottom=0;right=0;overflow=hidden;pointerEvents=1;fontFamily=Source Code Pro;fontSource=https%3A%2F%2Ffonts.googleapis.com%2Fcss%3Ffamily%3DSource%2BCode%2BPro;fontColor=#66FF66;strokeColor=#C4C4C4;" vertex="1" parent="28t_TmLzIudg9PH67Oan-267">
          <mxGeometry x="88" width="22" height="6" as="geometry">
            <mxRectangle width="22" height="6" as="alternateBounds" />
          </mxGeometry>
        </mxCell>
        <mxCell id="28t_TmLzIudg9PH67Oan-285" value="" style="shape=table;html=1;whiteSpace=wrap;startSize=0;container=1;collapsible=0;childLayout=tableLayout;fontFamily=Source Code Pro;fontSource=https://fonts.googleapis.com/css?family=Source+Code+Pro;fontColor=#66FF66;strokeColor=#C4C4C4;" vertex="1" parent="1">
          <mxGeometry x="410" y="260" width="110" height="41" as="geometry" />
        </mxCell>
        <mxCell id="28t_TmLzIudg9PH67Oan-286" value="" style="shape=tableRow;horizontal=0;startSize=0;swimlaneHead=0;swimlaneBody=0;top=0;left=0;bottom=0;right=0;collapsible=0;dropTarget=0;fillColor=none;points=[[0,0.5],[1,0.5]];portConstraint=eastwest;fontFamily=Source Code Pro;fontSource=https://fonts.googleapis.com/css?family=Source+Code+Pro;fontColor=#66FF66;strokeColor=#C4C4C4;" vertex="1" parent="28t_TmLzIudg9PH67Oan-285">
          <mxGeometry width="110" height="6" as="geometry" />
        </mxCell>
        <mxCell id="28t_TmLzIudg9PH67Oan-287" value="" style="shape=partialRectangle;html=1;whiteSpace=wrap;connectable=0;fillColor=none;top=0;left=0;bottom=0;right=0;overflow=hidden;fontFamily=Source Code Pro;fontSource=https://fonts.googleapis.com/css?family=Source+Code+Pro;fontColor=#66FF66;strokeColor=#C4C4C4;" vertex="1" parent="28t_TmLzIudg9PH67Oan-286">
          <mxGeometry width="22" height="6" as="geometry">
            <mxRectangle width="22" height="6" as="alternateBounds" />
          </mxGeometry>
        </mxCell>
        <mxCell id="28t_TmLzIudg9PH67Oan-288" value="" style="shape=partialRectangle;html=1;whiteSpace=wrap;connectable=0;fillColor=none;top=0;left=0;bottom=0;right=0;overflow=hidden;fontFamily=Source Code Pro;fontSource=https://fonts.googleapis.com/css?family=Source+Code+Pro;fontColor=#66FF66;strokeColor=#C4C4C4;" vertex="1" parent="28t_TmLzIudg9PH67Oan-286">
          <mxGeometry x="22" width="22" height="6" as="geometry">
            <mxRectangle width="22" height="6" as="alternateBounds" />
          </mxGeometry>
        </mxCell>
        <mxCell id="28t_TmLzIudg9PH67Oan-289" value="" style="shape=partialRectangle;html=1;whiteSpace=wrap;connectable=0;fillColor=none;top=0;left=0;bottom=0;right=0;overflow=hidden;fontFamily=Source Code Pro;fontSource=https://fonts.googleapis.com/css?family=Source+Code+Pro;fontColor=#66FF66;strokeColor=#C4C4C4;" vertex="1" parent="28t_TmLzIudg9PH67Oan-286">
          <mxGeometry x="44" width="22" height="6" as="geometry">
            <mxRectangle width="22" height="6" as="alternateBounds" />
          </mxGeometry>
        </mxCell>
        <mxCell id="28t_TmLzIudg9PH67Oan-290" style="shape=partialRectangle;html=1;whiteSpace=wrap;connectable=0;fillColor=none;top=0;left=0;bottom=0;right=0;overflow=hidden;fontFamily=Source Code Pro;fontSource=https://fonts.googleapis.com/css?family=Source+Code+Pro;fontColor=#66FF66;strokeColor=#C4C4C4;" vertex="1" parent="28t_TmLzIudg9PH67Oan-286">
          <mxGeometry x="66" width="22" height="6" as="geometry">
            <mxRectangle width="22" height="6" as="alternateBounds" />
          </mxGeometry>
        </mxCell>
        <mxCell id="28t_TmLzIudg9PH67Oan-291" style="shape=partialRectangle;html=1;whiteSpace=wrap;connectable=0;fillColor=none;top=0;left=0;bottom=0;right=0;overflow=hidden;fontFamily=Source Code Pro;fontSource=https://fonts.googleapis.com/css?family=Source+Code+Pro;fontColor=#66FF66;strokeColor=#C4C4C4;" vertex="1" parent="28t_TmLzIudg9PH67Oan-286">
          <mxGeometry x="88" width="22" height="6" as="geometry">
            <mxRectangle width="22" height="6" as="alternateBounds" />
          </mxGeometry>
        </mxCell>
        <mxCell id="28t_TmLzIudg9PH67Oan-292" value="" style="shape=tableRow;horizontal=0;startSize=0;swimlaneHead=0;swimlaneBody=0;top=0;left=0;bottom=0;right=0;collapsible=0;dropTarget=0;fillColor=none;points=[[0,0.5],[1,0.5]];portConstraint=eastwest;fontFamily=Source Code Pro;fontSource=https://fonts.googleapis.com/css?family=Source+Code+Pro;fontColor=#66FF66;strokeColor=#C4C4C4;" vertex="1" parent="28t_TmLzIudg9PH67Oan-285">
          <mxGeometry y="6" width="110" height="6" as="geometry" />
        </mxCell>
        <mxCell id="28t_TmLzIudg9PH67Oan-293" value="" style="shape=partialRectangle;html=1;whiteSpace=wrap;connectable=0;fillColor=none;top=0;left=0;bottom=0;right=0;overflow=hidden;fontFamily=Source Code Pro;fontSource=https://fonts.googleapis.com/css?family=Source+Code+Pro;fontColor=#66FF66;strokeColor=#C4C4C4;" vertex="1" parent="28t_TmLzIudg9PH67Oan-292">
          <mxGeometry width="22" height="6" as="geometry">
            <mxRectangle width="22" height="6" as="alternateBounds" />
          </mxGeometry>
        </mxCell>
        <mxCell id="28t_TmLzIudg9PH67Oan-294" value="" style="shape=partialRectangle;html=1;whiteSpace=wrap;connectable=0;fillColor=none;top=0;left=0;bottom=0;right=0;overflow=hidden;fontFamily=Source Code Pro;fontSource=https://fonts.googleapis.com/css?family=Source+Code+Pro;fontColor=#66FF66;strokeColor=#C4C4C4;" vertex="1" parent="28t_TmLzIudg9PH67Oan-292">
          <mxGeometry x="22" width="22" height="6" as="geometry">
            <mxRectangle width="22" height="6" as="alternateBounds" />
          </mxGeometry>
        </mxCell>
        <mxCell id="28t_TmLzIudg9PH67Oan-295" value="" style="shape=partialRectangle;html=1;whiteSpace=wrap;connectable=0;fillColor=none;top=0;left=0;bottom=0;right=0;overflow=hidden;fontFamily=Source Code Pro;fontSource=https://fonts.googleapis.com/css?family=Source+Code+Pro;fontColor=#66FF66;strokeColor=#C4C4C4;" vertex="1" parent="28t_TmLzIudg9PH67Oan-292">
          <mxGeometry x="44" width="22" height="6" as="geometry">
            <mxRectangle width="22" height="6" as="alternateBounds" />
          </mxGeometry>
        </mxCell>
        <mxCell id="28t_TmLzIudg9PH67Oan-296" style="shape=partialRectangle;html=1;whiteSpace=wrap;connectable=0;fillColor=none;top=0;left=0;bottom=0;right=0;overflow=hidden;fontFamily=Source Code Pro;fontSource=https://fonts.googleapis.com/css?family=Source+Code+Pro;fontColor=#66FF66;strokeColor=#C4C4C4;" vertex="1" parent="28t_TmLzIudg9PH67Oan-292">
          <mxGeometry x="66" width="22" height="6" as="geometry">
            <mxRectangle width="22" height="6" as="alternateBounds" />
          </mxGeometry>
        </mxCell>
        <mxCell id="28t_TmLzIudg9PH67Oan-297" style="shape=partialRectangle;html=1;whiteSpace=wrap;connectable=0;fillColor=none;top=0;left=0;bottom=0;right=0;overflow=hidden;fontFamily=Source Code Pro;fontSource=https://fonts.googleapis.com/css?family=Source+Code+Pro;fontColor=#66FF66;strokeColor=#C4C4C4;" vertex="1" parent="28t_TmLzIudg9PH67Oan-292">
          <mxGeometry x="88" width="22" height="6" as="geometry">
            <mxRectangle width="22" height="6" as="alternateBounds" />
          </mxGeometry>
        </mxCell>
        <mxCell id="28t_TmLzIudg9PH67Oan-298" value="" style="shape=tableRow;horizontal=0;startSize=0;swimlaneHead=0;swimlaneBody=0;top=0;left=0;bottom=0;right=0;collapsible=0;dropTarget=0;fillColor=none;points=[[0,0.5],[1,0.5]];portConstraint=eastwest;fontFamily=Source Code Pro;fontSource=https://fonts.googleapis.com/css?family=Source+Code+Pro;fontColor=#66FF66;strokeColor=#C4C4C4;" vertex="1" parent="28t_TmLzIudg9PH67Oan-285">
          <mxGeometry y="12" width="110" height="5" as="geometry" />
        </mxCell>
        <mxCell id="28t_TmLzIudg9PH67Oan-299" value="" style="shape=partialRectangle;html=1;whiteSpace=wrap;connectable=0;fillColor=none;top=0;left=0;bottom=0;right=0;overflow=hidden;fontFamily=Source Code Pro;fontSource=https://fonts.googleapis.com/css?family=Source+Code+Pro;fontColor=#66FF66;strokeColor=#C4C4C4;" vertex="1" parent="28t_TmLzIudg9PH67Oan-298">
          <mxGeometry width="22" height="5" as="geometry">
            <mxRectangle width="22" height="5" as="alternateBounds" />
          </mxGeometry>
        </mxCell>
        <mxCell id="28t_TmLzIudg9PH67Oan-300" value="" style="shape=partialRectangle;html=1;whiteSpace=wrap;connectable=0;fillColor=none;top=0;left=0;bottom=0;right=0;overflow=hidden;fontFamily=Source Code Pro;fontSource=https://fonts.googleapis.com/css?family=Source+Code+Pro;fontColor=#66FF66;strokeColor=#C4C4C4;" vertex="1" parent="28t_TmLzIudg9PH67Oan-298">
          <mxGeometry x="22" width="22" height="5" as="geometry">
            <mxRectangle width="22" height="5" as="alternateBounds" />
          </mxGeometry>
        </mxCell>
        <mxCell id="28t_TmLzIudg9PH67Oan-301" value="" style="shape=partialRectangle;html=1;whiteSpace=wrap;connectable=0;fillColor=none;top=0;left=0;bottom=0;right=0;overflow=hidden;pointerEvents=1;fontFamily=Source Code Pro;fontSource=https://fonts.googleapis.com/css?family=Source+Code+Pro;fontColor=#66FF66;strokeColor=#C4C4C4;" vertex="1" parent="28t_TmLzIudg9PH67Oan-298">
          <mxGeometry x="44" width="22" height="5" as="geometry">
            <mxRectangle width="22" height="5" as="alternateBounds" />
          </mxGeometry>
        </mxCell>
        <mxCell id="28t_TmLzIudg9PH67Oan-302" style="shape=partialRectangle;html=1;whiteSpace=wrap;connectable=0;fillColor=none;top=0;left=0;bottom=0;right=0;overflow=hidden;pointerEvents=1;fontFamily=Source Code Pro;fontSource=https://fonts.googleapis.com/css?family=Source+Code+Pro;fontColor=#66FF66;strokeColor=#C4C4C4;" vertex="1" parent="28t_TmLzIudg9PH67Oan-298">
          <mxGeometry x="66" width="22" height="5" as="geometry">
            <mxRectangle width="22" height="5" as="alternateBounds" />
          </mxGeometry>
        </mxCell>
        <mxCell id="28t_TmLzIudg9PH67Oan-303" style="shape=partialRectangle;html=1;whiteSpace=wrap;connectable=0;fillColor=none;top=0;left=0;bottom=0;right=0;overflow=hidden;pointerEvents=1;fontFamily=Source Code Pro;fontSource=https://fonts.googleapis.com/css?family=Source+Code+Pro;fontColor=#66FF66;strokeColor=#C4C4C4;" vertex="1" parent="28t_TmLzIudg9PH67Oan-298">
          <mxGeometry x="88" width="22" height="5" as="geometry">
            <mxRectangle width="22" height="5" as="alternateBounds" />
          </mxGeometry>
        </mxCell>
        <mxCell id="28t_TmLzIudg9PH67Oan-304" style="shape=tableRow;horizontal=0;startSize=0;swimlaneHead=0;swimlaneBody=0;top=0;left=0;bottom=0;right=0;collapsible=0;dropTarget=0;fillColor=none;points=[[0,0.5],[1,0.5]];portConstraint=eastwest;fontFamily=Source Code Pro;fontSource=https://fonts.googleapis.com/css?family=Source+Code+Pro;fontColor=#66FF66;strokeColor=#C4C4C4;" vertex="1" parent="28t_TmLzIudg9PH67Oan-285">
          <mxGeometry y="17" width="110" height="6" as="geometry" />
        </mxCell>
        <mxCell id="28t_TmLzIudg9PH67Oan-305" style="shape=partialRectangle;html=1;whiteSpace=wrap;connectable=0;fillColor=none;top=0;left=0;bottom=0;right=0;overflow=hidden;fontFamily=Source Code Pro;fontSource=https://fonts.googleapis.com/css?family=Source+Code+Pro;fontColor=#66FF66;strokeColor=#C4C4C4;" vertex="1" parent="28t_TmLzIudg9PH67Oan-304">
          <mxGeometry width="22" height="6" as="geometry">
            <mxRectangle width="22" height="6" as="alternateBounds" />
          </mxGeometry>
        </mxCell>
        <mxCell id="28t_TmLzIudg9PH67Oan-306" style="shape=partialRectangle;html=1;whiteSpace=wrap;connectable=0;fillColor=none;top=0;left=0;bottom=0;right=0;overflow=hidden;fontFamily=Source Code Pro;fontSource=https://fonts.googleapis.com/css?family=Source+Code+Pro;fontColor=#66FF66;strokeColor=#C4C4C4;" vertex="1" parent="28t_TmLzIudg9PH67Oan-304">
          <mxGeometry x="22" width="22" height="6" as="geometry">
            <mxRectangle width="22" height="6" as="alternateBounds" />
          </mxGeometry>
        </mxCell>
        <mxCell id="28t_TmLzIudg9PH67Oan-307" style="shape=partialRectangle;html=1;whiteSpace=wrap;connectable=0;fillColor=none;top=0;left=0;bottom=0;right=0;overflow=hidden;pointerEvents=1;fontFamily=Source Code Pro;fontSource=https://fonts.googleapis.com/css?family=Source+Code+Pro;fontColor=#66FF66;strokeColor=#C4C4C4;" vertex="1" parent="28t_TmLzIudg9PH67Oan-304">
          <mxGeometry x="44" width="22" height="6" as="geometry">
            <mxRectangle width="22" height="6" as="alternateBounds" />
          </mxGeometry>
        </mxCell>
        <mxCell id="28t_TmLzIudg9PH67Oan-308" style="shape=partialRectangle;html=1;whiteSpace=wrap;connectable=0;fillColor=none;top=0;left=0;bottom=0;right=0;overflow=hidden;pointerEvents=1;fontFamily=Source Code Pro;fontSource=https://fonts.googleapis.com/css?family=Source+Code+Pro;fontColor=#66FF66;strokeColor=#C4C4C4;" vertex="1" parent="28t_TmLzIudg9PH67Oan-304">
          <mxGeometry x="66" width="22" height="6" as="geometry">
            <mxRectangle width="22" height="6" as="alternateBounds" />
          </mxGeometry>
        </mxCell>
        <mxCell id="28t_TmLzIudg9PH67Oan-309" style="shape=partialRectangle;html=1;whiteSpace=wrap;connectable=0;fillColor=none;top=0;left=0;bottom=0;right=0;overflow=hidden;pointerEvents=1;fontFamily=Source Code Pro;fontSource=https://fonts.googleapis.com/css?family=Source+Code+Pro;fontColor=#66FF66;strokeColor=#C4C4C4;" vertex="1" parent="28t_TmLzIudg9PH67Oan-304">
          <mxGeometry x="88" width="22" height="6" as="geometry">
            <mxRectangle width="22" height="6" as="alternateBounds" />
          </mxGeometry>
        </mxCell>
        <mxCell id="28t_TmLzIudg9PH67Oan-310" style="shape=tableRow;horizontal=0;startSize=0;swimlaneHead=0;swimlaneBody=0;top=0;left=0;bottom=0;right=0;collapsible=0;dropTarget=0;fillColor=none;points=[[0,0.5],[1,0.5]];portConstraint=eastwest;fontFamily=Source Code Pro;fontSource=https://fonts.googleapis.com/css?family=Source+Code+Pro;fontColor=#66FF66;strokeColor=#C4C4C4;" vertex="1" parent="28t_TmLzIudg9PH67Oan-285">
          <mxGeometry y="23" width="110" height="6" as="geometry" />
        </mxCell>
        <mxCell id="28t_TmLzIudg9PH67Oan-311" style="shape=partialRectangle;html=1;whiteSpace=wrap;connectable=0;fillColor=none;top=0;left=0;bottom=0;right=0;overflow=hidden;fontFamily=Source Code Pro;fontSource=https://fonts.googleapis.com/css?family=Source+Code+Pro;fontColor=#66FF66;strokeColor=#C4C4C4;" vertex="1" parent="28t_TmLzIudg9PH67Oan-310">
          <mxGeometry width="22" height="6" as="geometry">
            <mxRectangle width="22" height="6" as="alternateBounds" />
          </mxGeometry>
        </mxCell>
        <mxCell id="28t_TmLzIudg9PH67Oan-312" style="shape=partialRectangle;html=1;whiteSpace=wrap;connectable=0;fillColor=none;top=0;left=0;bottom=0;right=0;overflow=hidden;fontFamily=Source Code Pro;fontSource=https://fonts.googleapis.com/css?family=Source+Code+Pro;fontColor=#66FF66;strokeColor=#C4C4C4;" vertex="1" parent="28t_TmLzIudg9PH67Oan-310">
          <mxGeometry x="22" width="22" height="6" as="geometry">
            <mxRectangle width="22" height="6" as="alternateBounds" />
          </mxGeometry>
        </mxCell>
        <mxCell id="28t_TmLzIudg9PH67Oan-313" style="shape=partialRectangle;html=1;whiteSpace=wrap;connectable=0;fillColor=none;top=0;left=0;bottom=0;right=0;overflow=hidden;pointerEvents=1;fontFamily=Source Code Pro;fontSource=https://fonts.googleapis.com/css?family=Source+Code+Pro;fontColor=#66FF66;strokeColor=#C4C4C4;" vertex="1" parent="28t_TmLzIudg9PH67Oan-310">
          <mxGeometry x="44" width="22" height="6" as="geometry">
            <mxRectangle width="22" height="6" as="alternateBounds" />
          </mxGeometry>
        </mxCell>
        <mxCell id="28t_TmLzIudg9PH67Oan-314" style="shape=partialRectangle;html=1;whiteSpace=wrap;connectable=0;fillColor=none;top=0;left=0;bottom=0;right=0;overflow=hidden;pointerEvents=1;fontFamily=Source Code Pro;fontSource=https://fonts.googleapis.com/css?family=Source+Code+Pro;fontColor=#66FF66;strokeColor=#C4C4C4;" vertex="1" parent="28t_TmLzIudg9PH67Oan-310">
          <mxGeometry x="66" width="22" height="6" as="geometry">
            <mxRectangle width="22" height="6" as="alternateBounds" />
          </mxGeometry>
        </mxCell>
        <mxCell id="28t_TmLzIudg9PH67Oan-315" style="shape=partialRectangle;html=1;whiteSpace=wrap;connectable=0;fillColor=none;top=0;left=0;bottom=0;right=0;overflow=hidden;pointerEvents=1;fontFamily=Source Code Pro;fontSource=https://fonts.googleapis.com/css?family=Source+Code+Pro;fontColor=#66FF66;strokeColor=#C4C4C4;" vertex="1" parent="28t_TmLzIudg9PH67Oan-310">
          <mxGeometry x="88" width="22" height="6" as="geometry">
            <mxRectangle width="22" height="6" as="alternateBounds" />
          </mxGeometry>
        </mxCell>
        <mxCell id="28t_TmLzIudg9PH67Oan-316" style="shape=tableRow;horizontal=0;startSize=0;swimlaneHead=0;swimlaneBody=0;top=0;left=0;bottom=0;right=0;collapsible=0;dropTarget=0;fillColor=none;points=[[0,0.5],[1,0.5]];portConstraint=eastwest;fontFamily=Source Code Pro;fontSource=https://fonts.googleapis.com/css?family=Source+Code+Pro;fontColor=#66FF66;strokeColor=#C4C4C4;" vertex="1" parent="28t_TmLzIudg9PH67Oan-285">
          <mxGeometry y="29" width="110" height="6" as="geometry" />
        </mxCell>
        <mxCell id="28t_TmLzIudg9PH67Oan-317" style="shape=partialRectangle;html=1;whiteSpace=wrap;connectable=0;fillColor=none;top=0;left=0;bottom=0;right=0;overflow=hidden;fontFamily=Source Code Pro;fontSource=https://fonts.googleapis.com/css?family=Source+Code+Pro;fontColor=#66FF66;strokeColor=#C4C4C4;" vertex="1" parent="28t_TmLzIudg9PH67Oan-316">
          <mxGeometry width="22" height="6" as="geometry">
            <mxRectangle width="22" height="6" as="alternateBounds" />
          </mxGeometry>
        </mxCell>
        <mxCell id="28t_TmLzIudg9PH67Oan-318" style="shape=partialRectangle;html=1;whiteSpace=wrap;connectable=0;fillColor=none;top=0;left=0;bottom=0;right=0;overflow=hidden;fontFamily=Source Code Pro;fontSource=https://fonts.googleapis.com/css?family=Source+Code+Pro;fontColor=#66FF66;strokeColor=#C4C4C4;" vertex="1" parent="28t_TmLzIudg9PH67Oan-316">
          <mxGeometry x="22" width="22" height="6" as="geometry">
            <mxRectangle width="22" height="6" as="alternateBounds" />
          </mxGeometry>
        </mxCell>
        <mxCell id="28t_TmLzIudg9PH67Oan-319" style="shape=partialRectangle;html=1;whiteSpace=wrap;connectable=0;fillColor=none;top=0;left=0;bottom=0;right=0;overflow=hidden;pointerEvents=1;fontFamily=Source Code Pro;fontSource=https://fonts.googleapis.com/css?family=Source+Code+Pro;fontColor=#66FF66;strokeColor=#C4C4C4;" vertex="1" parent="28t_TmLzIudg9PH67Oan-316">
          <mxGeometry x="44" width="22" height="6" as="geometry">
            <mxRectangle width="22" height="6" as="alternateBounds" />
          </mxGeometry>
        </mxCell>
        <mxCell id="28t_TmLzIudg9PH67Oan-320" style="shape=partialRectangle;html=1;whiteSpace=wrap;connectable=0;fillColor=none;top=0;left=0;bottom=0;right=0;overflow=hidden;pointerEvents=1;fontFamily=Source Code Pro;fontSource=https://fonts.googleapis.com/css?family=Source+Code+Pro;fontColor=#66FF66;strokeColor=#C4C4C4;" vertex="1" parent="28t_TmLzIudg9PH67Oan-316">
          <mxGeometry x="66" width="22" height="6" as="geometry">
            <mxRectangle width="22" height="6" as="alternateBounds" />
          </mxGeometry>
        </mxCell>
        <mxCell id="28t_TmLzIudg9PH67Oan-321" style="shape=partialRectangle;html=1;whiteSpace=wrap;connectable=0;fillColor=none;top=0;left=0;bottom=0;right=0;overflow=hidden;pointerEvents=1;fontFamily=Source Code Pro;fontSource=https://fonts.googleapis.com/css?family=Source+Code+Pro;fontColor=#66FF66;strokeColor=#C4C4C4;" vertex="1" parent="28t_TmLzIudg9PH67Oan-316">
          <mxGeometry x="88" width="22" height="6" as="geometry">
            <mxRectangle width="22" height="6" as="alternateBounds" />
          </mxGeometry>
        </mxCell>
        <mxCell id="28t_TmLzIudg9PH67Oan-322" style="shape=tableRow;horizontal=0;startSize=0;swimlaneHead=0;swimlaneBody=0;top=0;left=0;bottom=0;right=0;collapsible=0;dropTarget=0;fillColor=none;points=[[0,0.5],[1,0.5]];portConstraint=eastwest;fontFamily=Source Code Pro;fontSource=https://fonts.googleapis.com/css?family=Source+Code+Pro;fontColor=#66FF66;strokeColor=#C4C4C4;" vertex="1" parent="28t_TmLzIudg9PH67Oan-285">
          <mxGeometry y="35" width="110" height="6" as="geometry" />
        </mxCell>
        <mxCell id="28t_TmLzIudg9PH67Oan-323" style="shape=partialRectangle;html=1;whiteSpace=wrap;connectable=0;fillColor=none;top=0;left=0;bottom=0;right=0;overflow=hidden;fontFamily=Source Code Pro;fontSource=https://fonts.googleapis.com/css?family=Source+Code+Pro;fontColor=#66FF66;strokeColor=#C4C4C4;" vertex="1" parent="28t_TmLzIudg9PH67Oan-322">
          <mxGeometry width="22" height="6" as="geometry">
            <mxRectangle width="22" height="6" as="alternateBounds" />
          </mxGeometry>
        </mxCell>
        <mxCell id="28t_TmLzIudg9PH67Oan-324" style="shape=partialRectangle;html=1;whiteSpace=wrap;connectable=0;fillColor=none;top=0;left=0;bottom=0;right=0;overflow=hidden;fontFamily=Source Code Pro;fontSource=https://fonts.googleapis.com/css?family=Source+Code+Pro;fontColor=#66FF66;strokeColor=#C4C4C4;" vertex="1" parent="28t_TmLzIudg9PH67Oan-322">
          <mxGeometry x="22" width="22" height="6" as="geometry">
            <mxRectangle width="22" height="6" as="alternateBounds" />
          </mxGeometry>
        </mxCell>
        <mxCell id="28t_TmLzIudg9PH67Oan-325" style="shape=partialRectangle;html=1;whiteSpace=wrap;connectable=0;fillColor=none;top=0;left=0;bottom=0;right=0;overflow=hidden;pointerEvents=1;fontFamily=Source Code Pro;fontSource=https://fonts.googleapis.com/css?family=Source+Code+Pro;fontColor=#66FF66;strokeColor=#C4C4C4;" vertex="1" parent="28t_TmLzIudg9PH67Oan-322">
          <mxGeometry x="44" width="22" height="6" as="geometry">
            <mxRectangle width="22" height="6" as="alternateBounds" />
          </mxGeometry>
        </mxCell>
        <mxCell id="28t_TmLzIudg9PH67Oan-326" style="shape=partialRectangle;html=1;whiteSpace=wrap;connectable=0;fillColor=none;top=0;left=0;bottom=0;right=0;overflow=hidden;pointerEvents=1;fontFamily=Source Code Pro;fontSource=https://fonts.googleapis.com/css?family=Source+Code+Pro;fontColor=#66FF66;strokeColor=#C4C4C4;" vertex="1" parent="28t_TmLzIudg9PH67Oan-322">
          <mxGeometry x="66" width="22" height="6" as="geometry">
            <mxRectangle width="22" height="6" as="alternateBounds" />
          </mxGeometry>
        </mxCell>
        <mxCell id="28t_TmLzIudg9PH67Oan-327" style="shape=partialRectangle;html=1;whiteSpace=wrap;connectable=0;fillColor=none;top=0;left=0;bottom=0;right=0;overflow=hidden;pointerEvents=1;fontFamily=Source Code Pro;fontSource=https://fonts.googleapis.com/css?family=Source+Code+Pro;fontColor=#66FF66;strokeColor=#C4C4C4;" vertex="1" parent="28t_TmLzIudg9PH67Oan-322">
          <mxGeometry x="88" width="22" height="6" as="geometry">
            <mxRectangle width="22" height="6" as="alternateBounds" />
          </mxGeometry>
        </mxCell>
        <mxCell id="28t_TmLzIudg9PH67Oan-328" value="" style="shape=table;html=1;whiteSpace=wrap;startSize=0;container=1;collapsible=0;childLayout=tableLayout;fontFamily=Source Code Pro;fontSource=https://fonts.googleapis.com/css?family=Source+Code+Pro;fontColor=#66FF66;strokeColor=#C4C4C4;" vertex="1" parent="1">
          <mxGeometry x="410" y="260" width="110" height="41" as="geometry" />
        </mxCell>
        <mxCell id="28t_TmLzIudg9PH67Oan-329" value="" style="shape=tableRow;horizontal=0;startSize=0;swimlaneHead=0;swimlaneBody=0;top=0;left=0;bottom=0;right=0;collapsible=0;dropTarget=0;fillColor=none;points=[[0,0.5],[1,0.5]];portConstraint=eastwest;fontFamily=Source Code Pro;fontSource=https://fonts.googleapis.com/css?family=Source+Code+Pro;fontColor=#66FF66;strokeColor=#C4C4C4;" vertex="1" parent="28t_TmLzIudg9PH67Oan-328">
          <mxGeometry width="110" height="6" as="geometry" />
        </mxCell>
        <mxCell id="28t_TmLzIudg9PH67Oan-330" value="" style="shape=partialRectangle;html=1;whiteSpace=wrap;connectable=0;fillColor=none;top=0;left=0;bottom=0;right=0;overflow=hidden;fontFamily=Source Code Pro;fontSource=https://fonts.googleapis.com/css?family=Source+Code+Pro;fontColor=#66FF66;strokeColor=#C4C4C4;" vertex="1" parent="28t_TmLzIudg9PH67Oan-329">
          <mxGeometry width="22" height="6" as="geometry">
            <mxRectangle width="22" height="6" as="alternateBounds" />
          </mxGeometry>
        </mxCell>
        <mxCell id="28t_TmLzIudg9PH67Oan-331" value="" style="shape=partialRectangle;html=1;whiteSpace=wrap;connectable=0;fillColor=none;top=0;left=0;bottom=0;right=0;overflow=hidden;fontFamily=Source Code Pro;fontSource=https://fonts.googleapis.com/css?family=Source+Code+Pro;fontColor=#66FF66;strokeColor=#C4C4C4;" vertex="1" parent="28t_TmLzIudg9PH67Oan-329">
          <mxGeometry x="22" width="22" height="6" as="geometry">
            <mxRectangle width="22" height="6" as="alternateBounds" />
          </mxGeometry>
        </mxCell>
        <mxCell id="28t_TmLzIudg9PH67Oan-332" value="" style="shape=partialRectangle;html=1;whiteSpace=wrap;connectable=0;fillColor=none;top=0;left=0;bottom=0;right=0;overflow=hidden;fontFamily=Source Code Pro;fontSource=https://fonts.googleapis.com/css?family=Source+Code+Pro;fontColor=#66FF66;strokeColor=#C4C4C4;" vertex="1" parent="28t_TmLzIudg9PH67Oan-329">
          <mxGeometry x="44" width="22" height="6" as="geometry">
            <mxRectangle width="22" height="6" as="alternateBounds" />
          </mxGeometry>
        </mxCell>
        <mxCell id="28t_TmLzIudg9PH67Oan-333" style="shape=partialRectangle;html=1;whiteSpace=wrap;connectable=0;fillColor=none;top=0;left=0;bottom=0;right=0;overflow=hidden;fontFamily=Source Code Pro;fontSource=https://fonts.googleapis.com/css?family=Source+Code+Pro;fontColor=#66FF66;strokeColor=#C4C4C4;" vertex="1" parent="28t_TmLzIudg9PH67Oan-329">
          <mxGeometry x="66" width="22" height="6" as="geometry">
            <mxRectangle width="22" height="6" as="alternateBounds" />
          </mxGeometry>
        </mxCell>
        <mxCell id="28t_TmLzIudg9PH67Oan-334" style="shape=partialRectangle;html=1;whiteSpace=wrap;connectable=0;fillColor=none;top=0;left=0;bottom=0;right=0;overflow=hidden;fontFamily=Source Code Pro;fontSource=https://fonts.googleapis.com/css?family=Source+Code+Pro;fontColor=#66FF66;strokeColor=#C4C4C4;" vertex="1" parent="28t_TmLzIudg9PH67Oan-329">
          <mxGeometry x="88" width="22" height="6" as="geometry">
            <mxRectangle width="22" height="6" as="alternateBounds" />
          </mxGeometry>
        </mxCell>
        <mxCell id="28t_TmLzIudg9PH67Oan-335" value="" style="shape=tableRow;horizontal=0;startSize=0;swimlaneHead=0;swimlaneBody=0;top=0;left=0;bottom=0;right=0;collapsible=0;dropTarget=0;fillColor=none;points=[[0,0.5],[1,0.5]];portConstraint=eastwest;fontFamily=Source Code Pro;fontSource=https://fonts.googleapis.com/css?family=Source+Code+Pro;fontColor=#66FF66;strokeColor=#C4C4C4;" vertex="1" parent="28t_TmLzIudg9PH67Oan-328">
          <mxGeometry y="6" width="110" height="6" as="geometry" />
        </mxCell>
        <mxCell id="28t_TmLzIudg9PH67Oan-336" value="" style="shape=partialRectangle;html=1;whiteSpace=wrap;connectable=0;fillColor=none;top=0;left=0;bottom=0;right=0;overflow=hidden;fontFamily=Source Code Pro;fontSource=https://fonts.googleapis.com/css?family=Source+Code+Pro;fontColor=#66FF66;strokeColor=#C4C4C4;" vertex="1" parent="28t_TmLzIudg9PH67Oan-335">
          <mxGeometry width="22" height="6" as="geometry">
            <mxRectangle width="22" height="6" as="alternateBounds" />
          </mxGeometry>
        </mxCell>
        <mxCell id="28t_TmLzIudg9PH67Oan-337" value="" style="shape=partialRectangle;html=1;whiteSpace=wrap;connectable=0;fillColor=none;top=0;left=0;bottom=0;right=0;overflow=hidden;fontFamily=Source Code Pro;fontSource=https://fonts.googleapis.com/css?family=Source+Code+Pro;fontColor=#66FF66;strokeColor=#C4C4C4;" vertex="1" parent="28t_TmLzIudg9PH67Oan-335">
          <mxGeometry x="22" width="22" height="6" as="geometry">
            <mxRectangle width="22" height="6" as="alternateBounds" />
          </mxGeometry>
        </mxCell>
        <mxCell id="28t_TmLzIudg9PH67Oan-338" value="" style="shape=partialRectangle;html=1;whiteSpace=wrap;connectable=0;fillColor=none;top=0;left=0;bottom=0;right=0;overflow=hidden;fontFamily=Source Code Pro;fontSource=https://fonts.googleapis.com/css?family=Source+Code+Pro;fontColor=#66FF66;strokeColor=#C4C4C4;" vertex="1" parent="28t_TmLzIudg9PH67Oan-335">
          <mxGeometry x="44" width="22" height="6" as="geometry">
            <mxRectangle width="22" height="6" as="alternateBounds" />
          </mxGeometry>
        </mxCell>
        <mxCell id="28t_TmLzIudg9PH67Oan-339" style="shape=partialRectangle;html=1;whiteSpace=wrap;connectable=0;fillColor=none;top=0;left=0;bottom=0;right=0;overflow=hidden;fontFamily=Source Code Pro;fontSource=https://fonts.googleapis.com/css?family=Source+Code+Pro;fontColor=#66FF66;strokeColor=#C4C4C4;" vertex="1" parent="28t_TmLzIudg9PH67Oan-335">
          <mxGeometry x="66" width="22" height="6" as="geometry">
            <mxRectangle width="22" height="6" as="alternateBounds" />
          </mxGeometry>
        </mxCell>
        <mxCell id="28t_TmLzIudg9PH67Oan-340" style="shape=partialRectangle;html=1;whiteSpace=wrap;connectable=0;fillColor=none;top=0;left=0;bottom=0;right=0;overflow=hidden;fontFamily=Source Code Pro;fontSource=https://fonts.googleapis.com/css?family=Source+Code+Pro;fontColor=#66FF66;strokeColor=#C4C4C4;" vertex="1" parent="28t_TmLzIudg9PH67Oan-335">
          <mxGeometry x="88" width="22" height="6" as="geometry">
            <mxRectangle width="22" height="6" as="alternateBounds" />
          </mxGeometry>
        </mxCell>
        <mxCell id="28t_TmLzIudg9PH67Oan-341" value="" style="shape=tableRow;horizontal=0;startSize=0;swimlaneHead=0;swimlaneBody=0;top=0;left=0;bottom=0;right=0;collapsible=0;dropTarget=0;fillColor=none;points=[[0,0.5],[1,0.5]];portConstraint=eastwest;fontFamily=Source Code Pro;fontSource=https://fonts.googleapis.com/css?family=Source+Code+Pro;fontColor=#66FF66;strokeColor=#C4C4C4;" vertex="1" parent="28t_TmLzIudg9PH67Oan-328">
          <mxGeometry y="12" width="110" height="5" as="geometry" />
        </mxCell>
        <mxCell id="28t_TmLzIudg9PH67Oan-342" value="" style="shape=partialRectangle;html=1;whiteSpace=wrap;connectable=0;fillColor=none;top=0;left=0;bottom=0;right=0;overflow=hidden;fontFamily=Source Code Pro;fontSource=https://fonts.googleapis.com/css?family=Source+Code+Pro;fontColor=#66FF66;strokeColor=#C4C4C4;" vertex="1" parent="28t_TmLzIudg9PH67Oan-341">
          <mxGeometry width="22" height="5" as="geometry">
            <mxRectangle width="22" height="5" as="alternateBounds" />
          </mxGeometry>
        </mxCell>
        <mxCell id="28t_TmLzIudg9PH67Oan-343" value="" style="shape=partialRectangle;html=1;whiteSpace=wrap;connectable=0;fillColor=none;top=0;left=0;bottom=0;right=0;overflow=hidden;fontFamily=Source Code Pro;fontSource=https://fonts.googleapis.com/css?family=Source+Code+Pro;fontColor=#66FF66;strokeColor=#C4C4C4;" vertex="1" parent="28t_TmLzIudg9PH67Oan-341">
          <mxGeometry x="22" width="22" height="5" as="geometry">
            <mxRectangle width="22" height="5" as="alternateBounds" />
          </mxGeometry>
        </mxCell>
        <mxCell id="28t_TmLzIudg9PH67Oan-344" value="" style="shape=partialRectangle;html=1;whiteSpace=wrap;connectable=0;fillColor=none;top=0;left=0;bottom=0;right=0;overflow=hidden;pointerEvents=1;fontFamily=Source Code Pro;fontSource=https://fonts.googleapis.com/css?family=Source+Code+Pro;fontColor=#66FF66;strokeColor=#C4C4C4;" vertex="1" parent="28t_TmLzIudg9PH67Oan-341">
          <mxGeometry x="44" width="22" height="5" as="geometry">
            <mxRectangle width="22" height="5" as="alternateBounds" />
          </mxGeometry>
        </mxCell>
        <mxCell id="28t_TmLzIudg9PH67Oan-345" style="shape=partialRectangle;html=1;whiteSpace=wrap;connectable=0;fillColor=none;top=0;left=0;bottom=0;right=0;overflow=hidden;pointerEvents=1;fontFamily=Source Code Pro;fontSource=https://fonts.googleapis.com/css?family=Source+Code+Pro;fontColor=#66FF66;strokeColor=#C4C4C4;" vertex="1" parent="28t_TmLzIudg9PH67Oan-341">
          <mxGeometry x="66" width="22" height="5" as="geometry">
            <mxRectangle width="22" height="5" as="alternateBounds" />
          </mxGeometry>
        </mxCell>
        <mxCell id="28t_TmLzIudg9PH67Oan-346" style="shape=partialRectangle;html=1;whiteSpace=wrap;connectable=0;fillColor=none;top=0;left=0;bottom=0;right=0;overflow=hidden;pointerEvents=1;fontFamily=Source Code Pro;fontSource=https://fonts.googleapis.com/css?family=Source+Code+Pro;fontColor=#66FF66;strokeColor=#C4C4C4;" vertex="1" parent="28t_TmLzIudg9PH67Oan-341">
          <mxGeometry x="88" width="22" height="5" as="geometry">
            <mxRectangle width="22" height="5" as="alternateBounds" />
          </mxGeometry>
        </mxCell>
        <mxCell id="28t_TmLzIudg9PH67Oan-347" style="shape=tableRow;horizontal=0;startSize=0;swimlaneHead=0;swimlaneBody=0;top=0;left=0;bottom=0;right=0;collapsible=0;dropTarget=0;fillColor=none;points=[[0,0.5],[1,0.5]];portConstraint=eastwest;fontFamily=Source Code Pro;fontSource=https://fonts.googleapis.com/css?family=Source+Code+Pro;fontColor=#66FF66;strokeColor=#C4C4C4;" vertex="1" parent="28t_TmLzIudg9PH67Oan-328">
          <mxGeometry y="17" width="110" height="6" as="geometry" />
        </mxCell>
        <mxCell id="28t_TmLzIudg9PH67Oan-348" style="shape=partialRectangle;html=1;whiteSpace=wrap;connectable=0;fillColor=none;top=0;left=0;bottom=0;right=0;overflow=hidden;fontFamily=Source Code Pro;fontSource=https://fonts.googleapis.com/css?family=Source+Code+Pro;fontColor=#66FF66;strokeColor=#C4C4C4;" vertex="1" parent="28t_TmLzIudg9PH67Oan-347">
          <mxGeometry width="22" height="6" as="geometry">
            <mxRectangle width="22" height="6" as="alternateBounds" />
          </mxGeometry>
        </mxCell>
        <mxCell id="28t_TmLzIudg9PH67Oan-349" style="shape=partialRectangle;html=1;whiteSpace=wrap;connectable=0;fillColor=none;top=0;left=0;bottom=0;right=0;overflow=hidden;fontFamily=Source Code Pro;fontSource=https://fonts.googleapis.com/css?family=Source+Code+Pro;fontColor=#66FF66;strokeColor=#C4C4C4;" vertex="1" parent="28t_TmLzIudg9PH67Oan-347">
          <mxGeometry x="22" width="22" height="6" as="geometry">
            <mxRectangle width="22" height="6" as="alternateBounds" />
          </mxGeometry>
        </mxCell>
        <mxCell id="28t_TmLzIudg9PH67Oan-350" style="shape=partialRectangle;html=1;whiteSpace=wrap;connectable=0;fillColor=none;top=0;left=0;bottom=0;right=0;overflow=hidden;pointerEvents=1;fontFamily=Source Code Pro;fontSource=https://fonts.googleapis.com/css?family=Source+Code+Pro;fontColor=#66FF66;strokeColor=#C4C4C4;" vertex="1" parent="28t_TmLzIudg9PH67Oan-347">
          <mxGeometry x="44" width="22" height="6" as="geometry">
            <mxRectangle width="22" height="6" as="alternateBounds" />
          </mxGeometry>
        </mxCell>
        <mxCell id="28t_TmLzIudg9PH67Oan-351" style="shape=partialRectangle;html=1;whiteSpace=wrap;connectable=0;fillColor=none;top=0;left=0;bottom=0;right=0;overflow=hidden;pointerEvents=1;fontFamily=Source Code Pro;fontSource=https://fonts.googleapis.com/css?family=Source+Code+Pro;fontColor=#66FF66;strokeColor=#C4C4C4;" vertex="1" parent="28t_TmLzIudg9PH67Oan-347">
          <mxGeometry x="66" width="22" height="6" as="geometry">
            <mxRectangle width="22" height="6" as="alternateBounds" />
          </mxGeometry>
        </mxCell>
        <mxCell id="28t_TmLzIudg9PH67Oan-352" style="shape=partialRectangle;html=1;whiteSpace=wrap;connectable=0;fillColor=none;top=0;left=0;bottom=0;right=0;overflow=hidden;pointerEvents=1;fontFamily=Source Code Pro;fontSource=https://fonts.googleapis.com/css?family=Source+Code+Pro;fontColor=#66FF66;strokeColor=#C4C4C4;" vertex="1" parent="28t_TmLzIudg9PH67Oan-347">
          <mxGeometry x="88" width="22" height="6" as="geometry">
            <mxRectangle width="22" height="6" as="alternateBounds" />
          </mxGeometry>
        </mxCell>
        <mxCell id="28t_TmLzIudg9PH67Oan-353" style="shape=tableRow;horizontal=0;startSize=0;swimlaneHead=0;swimlaneBody=0;top=0;left=0;bottom=0;right=0;collapsible=0;dropTarget=0;fillColor=none;points=[[0,0.5],[1,0.5]];portConstraint=eastwest;fontFamily=Source Code Pro;fontSource=https://fonts.googleapis.com/css?family=Source+Code+Pro;fontColor=#66FF66;strokeColor=#C4C4C4;" vertex="1" parent="28t_TmLzIudg9PH67Oan-328">
          <mxGeometry y="23" width="110" height="6" as="geometry" />
        </mxCell>
        <mxCell id="28t_TmLzIudg9PH67Oan-354" style="shape=partialRectangle;html=1;whiteSpace=wrap;connectable=0;fillColor=none;top=0;left=0;bottom=0;right=0;overflow=hidden;fontFamily=Source Code Pro;fontSource=https://fonts.googleapis.com/css?family=Source+Code+Pro;fontColor=#66FF66;strokeColor=#C4C4C4;" vertex="1" parent="28t_TmLzIudg9PH67Oan-353">
          <mxGeometry width="22" height="6" as="geometry">
            <mxRectangle width="22" height="6" as="alternateBounds" />
          </mxGeometry>
        </mxCell>
        <mxCell id="28t_TmLzIudg9PH67Oan-355" style="shape=partialRectangle;html=1;whiteSpace=wrap;connectable=0;fillColor=none;top=0;left=0;bottom=0;right=0;overflow=hidden;fontFamily=Source Code Pro;fontSource=https://fonts.googleapis.com/css?family=Source+Code+Pro;fontColor=#66FF66;strokeColor=#C4C4C4;" vertex="1" parent="28t_TmLzIudg9PH67Oan-353">
          <mxGeometry x="22" width="22" height="6" as="geometry">
            <mxRectangle width="22" height="6" as="alternateBounds" />
          </mxGeometry>
        </mxCell>
        <mxCell id="28t_TmLzIudg9PH67Oan-356" style="shape=partialRectangle;html=1;whiteSpace=wrap;connectable=0;fillColor=none;top=0;left=0;bottom=0;right=0;overflow=hidden;pointerEvents=1;fontFamily=Source Code Pro;fontSource=https://fonts.googleapis.com/css?family=Source+Code+Pro;fontColor=#66FF66;strokeColor=#C4C4C4;" vertex="1" parent="28t_TmLzIudg9PH67Oan-353">
          <mxGeometry x="44" width="22" height="6" as="geometry">
            <mxRectangle width="22" height="6" as="alternateBounds" />
          </mxGeometry>
        </mxCell>
        <mxCell id="28t_TmLzIudg9PH67Oan-357" style="shape=partialRectangle;html=1;whiteSpace=wrap;connectable=0;fillColor=none;top=0;left=0;bottom=0;right=0;overflow=hidden;pointerEvents=1;fontFamily=Source Code Pro;fontSource=https://fonts.googleapis.com/css?family=Source+Code+Pro;fontColor=#66FF66;strokeColor=#C4C4C4;" vertex="1" parent="28t_TmLzIudg9PH67Oan-353">
          <mxGeometry x="66" width="22" height="6" as="geometry">
            <mxRectangle width="22" height="6" as="alternateBounds" />
          </mxGeometry>
        </mxCell>
        <mxCell id="28t_TmLzIudg9PH67Oan-358" style="shape=partialRectangle;html=1;whiteSpace=wrap;connectable=0;fillColor=none;top=0;left=0;bottom=0;right=0;overflow=hidden;pointerEvents=1;fontFamily=Source Code Pro;fontSource=https://fonts.googleapis.com/css?family=Source+Code+Pro;fontColor=#66FF66;strokeColor=#C4C4C4;" vertex="1" parent="28t_TmLzIudg9PH67Oan-353">
          <mxGeometry x="88" width="22" height="6" as="geometry">
            <mxRectangle width="22" height="6" as="alternateBounds" />
          </mxGeometry>
        </mxCell>
        <mxCell id="28t_TmLzIudg9PH67Oan-359" style="shape=tableRow;horizontal=0;startSize=0;swimlaneHead=0;swimlaneBody=0;top=0;left=0;bottom=0;right=0;collapsible=0;dropTarget=0;fillColor=none;points=[[0,0.5],[1,0.5]];portConstraint=eastwest;fontFamily=Source Code Pro;fontSource=https://fonts.googleapis.com/css?family=Source+Code+Pro;fontColor=#66FF66;strokeColor=#C4C4C4;" vertex="1" parent="28t_TmLzIudg9PH67Oan-328">
          <mxGeometry y="29" width="110" height="6" as="geometry" />
        </mxCell>
        <mxCell id="28t_TmLzIudg9PH67Oan-360" style="shape=partialRectangle;html=1;whiteSpace=wrap;connectable=0;fillColor=none;top=0;left=0;bottom=0;right=0;overflow=hidden;fontFamily=Source Code Pro;fontSource=https://fonts.googleapis.com/css?family=Source+Code+Pro;fontColor=#66FF66;strokeColor=#C4C4C4;" vertex="1" parent="28t_TmLzIudg9PH67Oan-359">
          <mxGeometry width="22" height="6" as="geometry">
            <mxRectangle width="22" height="6" as="alternateBounds" />
          </mxGeometry>
        </mxCell>
        <mxCell id="28t_TmLzIudg9PH67Oan-361" style="shape=partialRectangle;html=1;whiteSpace=wrap;connectable=0;fillColor=none;top=0;left=0;bottom=0;right=0;overflow=hidden;fontFamily=Source Code Pro;fontSource=https://fonts.googleapis.com/css?family=Source+Code+Pro;fontColor=#66FF66;strokeColor=#C4C4C4;" vertex="1" parent="28t_TmLzIudg9PH67Oan-359">
          <mxGeometry x="22" width="22" height="6" as="geometry">
            <mxRectangle width="22" height="6" as="alternateBounds" />
          </mxGeometry>
        </mxCell>
        <mxCell id="28t_TmLzIudg9PH67Oan-362" style="shape=partialRectangle;html=1;whiteSpace=wrap;connectable=0;fillColor=none;top=0;left=0;bottom=0;right=0;overflow=hidden;pointerEvents=1;fontFamily=Source Code Pro;fontSource=https://fonts.googleapis.com/css?family=Source+Code+Pro;fontColor=#66FF66;strokeColor=#C4C4C4;" vertex="1" parent="28t_TmLzIudg9PH67Oan-359">
          <mxGeometry x="44" width="22" height="6" as="geometry">
            <mxRectangle width="22" height="6" as="alternateBounds" />
          </mxGeometry>
        </mxCell>
        <mxCell id="28t_TmLzIudg9PH67Oan-363" style="shape=partialRectangle;html=1;whiteSpace=wrap;connectable=0;fillColor=none;top=0;left=0;bottom=0;right=0;overflow=hidden;pointerEvents=1;fontFamily=Source Code Pro;fontSource=https://fonts.googleapis.com/css?family=Source+Code+Pro;fontColor=#66FF66;strokeColor=#C4C4C4;" vertex="1" parent="28t_TmLzIudg9PH67Oan-359">
          <mxGeometry x="66" width="22" height="6" as="geometry">
            <mxRectangle width="22" height="6" as="alternateBounds" />
          </mxGeometry>
        </mxCell>
        <mxCell id="28t_TmLzIudg9PH67Oan-364" style="shape=partialRectangle;html=1;whiteSpace=wrap;connectable=0;fillColor=none;top=0;left=0;bottom=0;right=0;overflow=hidden;pointerEvents=1;fontFamily=Source Code Pro;fontSource=https://fonts.googleapis.com/css?family=Source+Code+Pro;fontColor=#66FF66;strokeColor=#C4C4C4;" vertex="1" parent="28t_TmLzIudg9PH67Oan-359">
          <mxGeometry x="88" width="22" height="6" as="geometry">
            <mxRectangle width="22" height="6" as="alternateBounds" />
          </mxGeometry>
        </mxCell>
        <mxCell id="28t_TmLzIudg9PH67Oan-365" style="shape=tableRow;horizontal=0;startSize=0;swimlaneHead=0;swimlaneBody=0;top=0;left=0;bottom=0;right=0;collapsible=0;dropTarget=0;fillColor=none;points=[[0,0.5],[1,0.5]];portConstraint=eastwest;fontFamily=Source Code Pro;fontSource=https://fonts.googleapis.com/css?family=Source+Code+Pro;fontColor=#66FF66;strokeColor=#C4C4C4;" vertex="1" parent="28t_TmLzIudg9PH67Oan-328">
          <mxGeometry y="35" width="110" height="6" as="geometry" />
        </mxCell>
        <mxCell id="28t_TmLzIudg9PH67Oan-366" style="shape=partialRectangle;html=1;whiteSpace=wrap;connectable=0;fillColor=none;top=0;left=0;bottom=0;right=0;overflow=hidden;fontFamily=Source Code Pro;fontSource=https://fonts.googleapis.com/css?family=Source+Code+Pro;fontColor=#66FF66;strokeColor=#C4C4C4;" vertex="1" parent="28t_TmLzIudg9PH67Oan-365">
          <mxGeometry width="22" height="6" as="geometry">
            <mxRectangle width="22" height="6" as="alternateBounds" />
          </mxGeometry>
        </mxCell>
        <mxCell id="28t_TmLzIudg9PH67Oan-367" style="shape=partialRectangle;html=1;whiteSpace=wrap;connectable=0;fillColor=none;top=0;left=0;bottom=0;right=0;overflow=hidden;fontFamily=Source Code Pro;fontSource=https://fonts.googleapis.com/css?family=Source+Code+Pro;fontColor=#66FF66;strokeColor=#C4C4C4;" vertex="1" parent="28t_TmLzIudg9PH67Oan-365">
          <mxGeometry x="22" width="22" height="6" as="geometry">
            <mxRectangle width="22" height="6" as="alternateBounds" />
          </mxGeometry>
        </mxCell>
        <mxCell id="28t_TmLzIudg9PH67Oan-368" style="shape=partialRectangle;html=1;whiteSpace=wrap;connectable=0;fillColor=none;top=0;left=0;bottom=0;right=0;overflow=hidden;pointerEvents=1;fontFamily=Source Code Pro;fontSource=https://fonts.googleapis.com/css?family=Source+Code+Pro;fontColor=#66FF66;strokeColor=#C4C4C4;" vertex="1" parent="28t_TmLzIudg9PH67Oan-365">
          <mxGeometry x="44" width="22" height="6" as="geometry">
            <mxRectangle width="22" height="6" as="alternateBounds" />
          </mxGeometry>
        </mxCell>
        <mxCell id="28t_TmLzIudg9PH67Oan-369" style="shape=partialRectangle;html=1;whiteSpace=wrap;connectable=0;fillColor=none;top=0;left=0;bottom=0;right=0;overflow=hidden;pointerEvents=1;fontFamily=Source Code Pro;fontSource=https://fonts.googleapis.com/css?family=Source+Code+Pro;fontColor=#66FF66;strokeColor=#C4C4C4;" vertex="1" parent="28t_TmLzIudg9PH67Oan-365">
          <mxGeometry x="66" width="22" height="6" as="geometry">
            <mxRectangle width="22" height="6" as="alternateBounds" />
          </mxGeometry>
        </mxCell>
        <mxCell id="28t_TmLzIudg9PH67Oan-370" style="shape=partialRectangle;html=1;whiteSpace=wrap;connectable=0;fillColor=none;top=0;left=0;bottom=0;right=0;overflow=hidden;pointerEvents=1;fontFamily=Source Code Pro;fontSource=https://fonts.googleapis.com/css?family=Source+Code+Pro;fontColor=#66FF66;strokeColor=#C4C4C4;" vertex="1" parent="28t_TmLzIudg9PH67Oan-365">
          <mxGeometry x="88" width="22" height="6" as="geometry">
            <mxRectangle width="22" height="6" as="alternateBounds" />
          </mxGeometry>
        </mxCell>
      </root>
    </mxGraphModel>
  </diagram>
</mxfile>
